<?xml version="1.0" encoding="utf-8" standalone="no"?>
<!DOCTYPE svg PUBLIC "-//W3C//DTD SVG 1.1//EN"
  "http://www.w3.org/Graphics/SVG/1.1/DTD/svg11.dtd">
<svg xmlns:xlink="http://www.w3.org/1999/xlink" width="297.94423pt" height="280.512pt" viewBox="0 0 297.94423 280.512" xmlns="http://www.w3.org/2000/svg" version="1.1">
 <metadata>
  <rdf:RDF xmlns:dc="http://purl.org/dc/elements/1.1/" xmlns:cc="http://creativecommons.org/ns#" xmlns:rdf="http://www.w3.org/1999/02/22-rdf-syntax-ns#">
   <cc:Work>
    <dc:type rdf:resource="http://purl.org/dc/dcmitype/StillImage"/>
    <dc:date>2025-07-30T06:52:43.688373</dc:date>
    <dc:format>image/svg+xml</dc:format>
    <dc:creator>
     <cc:Agent>
      <dc:title>Matplotlib v3.9.4, https://matplotlib.org/</dc:title>
     </cc:Agent>
    </dc:creator>
   </cc:Work>
  </rdf:RDF>
 </metadata>
 <defs>
  <style type="text/css">*{stroke-linejoin: round; stroke-linecap: butt}</style>
 </defs>
 <g id="figure_1">
  <g id="patch_1">
   <path d="M 0 280.512 
L 297.94423 280.512 
L 297.94423 0 
L 0 0 
L 0 280.512 
z
" style="fill: none"/>
  </g>
  <g id="axes_1">
   <g id="patch_2">
    <path d="M 136.67043 29.878018 
C 110.147747 29.878018 84.55954 39.79094 64.959039 57.659154 
C 45.358538 75.527369 33.126916 100.091769 30.679706 126.501311 
L 136.67043 136.322818 
z
" style="fill: #ffa500"/>
   </g>
   <g id="patch_3">
    <path d="M 34.265277 130.434492 
C 31.818068 156.844038 39.327713 183.237736 55.311199 204.403301 
C 71.294686 225.568864 94.625722 240.014843 120.69681 244.888375 
C 146.767899 249.761907 173.741909 244.719596 196.291953 230.757202 
C 218.841997 216.794809 235.37905 194.896222 242.637335 169.386024 
L 140.256 140.256 
z
" style="fill: #00bfbf"/>
   </g>
   <g id="patch_4">
    <path d="M 242.637335 169.386024 
C 246.236324 156.736886 247.46016 143.529641 246.246729 130.434565 
C 245.033298 117.339488 241.403474 104.581948 235.541491 92.809496 
L 140.256 140.256 
z
" style="fill: #bfbf00"/>
   </g>
   <g id="patch_5">
    <path d="M 235.541491 92.809496 
C 226.717643 75.08881 213.122926 60.176109 196.292004 49.754829 
C 179.461081 39.33355 160.05205 33.8112 140.256015 33.8112 
L 140.256 140.256 
z
" style="fill: #008000"/>
   </g>
   <g id="matplotlib.axis_1"/>
   <g id="matplotlib.axis_2"/>
   <g id="text_1">
    <!-- uncovered -->
    <g transform="translate(11.228508 52.617803) scale(0.1 -0.1)">
     <defs>
      <path id="Lato-Regular-75" d="M 3117 3242 
L 3117 0 
L 2778 0 
Q 2656 0 2624 118 
L 2579 467 
Q 2368 234 2105 91 
Q 1843 -51 1504 -51 
Q 1238 -51 1035 37 
Q 832 125 694 285 
Q 557 445 488 672 
Q 419 899 419 1174 
L 419 3242 
L 989 3242 
L 989 1174 
Q 989 806 1157 604 
Q 1325 403 1670 403 
Q 1923 403 2142 523 
Q 2362 643 2547 854 
L 2547 3242 
L 3117 3242 
z
" transform="scale(0.015625)"/>
      <path id="Lato-Regular-6e" d="M 989 2771 
Q 1094 2890 1212 2986 
Q 1331 3082 1464 3150 
Q 1597 3219 1745 3256 
Q 1894 3293 2067 3293 
Q 2333 3293 2536 3205 
Q 2739 3117 2875 2955 
Q 3011 2794 3081 2566 
Q 3152 2339 3152 2064 
L 3152 0 
L 2579 0 
L 2579 2064 
Q 2579 2432 2411 2635 
Q 2243 2838 1901 2838 
Q 1648 2838 1429 2716 
Q 1210 2595 1024 2387 
L 1024 0 
L 451 0 
L 451 3242 
L 794 3242 
Q 915 3242 944 3123 
L 989 2771 
z
" transform="scale(0.015625)"/>
      <path id="Lato-Regular-63" d="M 2707 2666 
Q 2682 2630 2656 2611 
Q 2630 2592 2586 2592 
Q 2538 2592 2480 2632 
Q 2422 2672 2337 2720 
Q 2253 2768 2129 2808 
Q 2006 2848 1827 2848 
Q 1587 2848 1404 2763 
Q 1222 2678 1099 2518 
Q 976 2358 913 2131 
Q 851 1904 851 1622 
Q 851 1328 918 1099 
Q 986 870 1109 715 
Q 1232 560 1406 478 
Q 1581 397 1798 397 
Q 2006 397 2140 446 
Q 2275 496 2363 557 
Q 2451 618 2510 667 
Q 2570 717 2627 717 
Q 2698 717 2736 662 
L 2896 454 
Q 2790 323 2656 230 
Q 2522 138 2366 75 
Q 2211 13 2041 -16 
Q 1872 -45 1696 -45 
Q 1392 -45 1131 67 
Q 870 179 678 392 
Q 486 605 377 915 
Q 269 1226 269 1622 
Q 269 1984 369 2291 
Q 470 2598 664 2820 
Q 858 3043 1141 3168 
Q 1424 3293 1792 3293 
Q 2134 3293 2395 3182 
Q 2656 3072 2858 2870 
L 2707 2666 
z
" transform="scale(0.015625)"/>
      <path id="Lato-Regular-6f" d="M 1818 3293 
Q 2173 3293 2457 3174 
Q 2742 3056 2944 2838 
Q 3146 2621 3253 2312 
Q 3360 2003 3360 1622 
Q 3360 1238 3253 931 
Q 3146 624 2944 406 
Q 2742 189 2457 72 
Q 2173 -45 1818 -45 
Q 1459 -45 1172 72 
Q 886 189 684 406 
Q 483 624 376 931 
Q 269 1238 269 1622 
Q 269 2003 376 2312 
Q 483 2621 684 2838 
Q 886 3056 1172 3174 
Q 1459 3293 1818 3293 
z
M 1818 400 
Q 2298 400 2534 721 
Q 2771 1043 2771 1619 
Q 2771 2198 2534 2521 
Q 2298 2845 1818 2845 
Q 1574 2845 1393 2761 
Q 1213 2678 1093 2521 
Q 973 2365 913 2136 
Q 854 1907 854 1619 
Q 854 1043 1092 721 
Q 1331 400 1818 400 
z
" transform="scale(0.015625)"/>
      <path id="Lato-Regular-76" d="M 3229 3242 
L 1907 0 
L 1395 0 
L 74 3242 
L 538 3242 
Q 608 3242 653 3206 
Q 698 3171 714 3123 
L 1536 1037 
Q 1574 918 1603 806 
Q 1632 694 1658 582 
Q 1683 694 1712 806 
Q 1741 918 1782 1037 
L 2614 3123 
Q 2634 3174 2678 3208 
Q 2723 3242 2784 3242 
L 3229 3242 
z
" transform="scale(0.015625)"/>
      <path id="Lato-Regular-65" d="M 2621 1974 
Q 2621 2173 2565 2337 
Q 2509 2502 2401 2622 
Q 2294 2742 2140 2808 
Q 1987 2874 1792 2874 
Q 1382 2874 1144 2635 
Q 906 2397 848 1974 
L 2621 1974 
z
M 3082 454 
Q 2976 326 2829 232 
Q 2682 138 2514 77 
Q 2346 16 2166 -14 
Q 1987 -45 1811 -45 
Q 1475 -45 1192 68 
Q 909 182 702 401 
Q 496 621 381 944 
Q 266 1267 266 1686 
Q 266 2026 370 2320 
Q 474 2614 669 2830 
Q 864 3046 1145 3169 
Q 1427 3293 1779 3293 
Q 2070 3293 2318 3195 
Q 2566 3098 2747 2914 
Q 2928 2730 3030 2459 
Q 3133 2189 3133 1843 
Q 3133 1709 3104 1664 
Q 3075 1619 2995 1619 
L 829 1619 
Q 838 1312 913 1085 
Q 989 858 1123 706 
Q 1258 554 1443 478 
Q 1629 403 1859 403 
Q 2074 403 2229 452 
Q 2384 502 2496 560 
Q 2608 618 2683 667 
Q 2758 717 2813 717 
Q 2883 717 2922 662 
L 3082 454 
z
" transform="scale(0.015625)"/>
      <path id="Lato-Regular-72" d="M 992 2592 
Q 1146 2925 1370 3112 
Q 1594 3299 1917 3299 
Q 2019 3299 2113 3276 
Q 2208 3254 2282 3206 
L 2240 2781 
Q 2221 2701 2144 2701 
Q 2099 2701 2012 2720 
Q 1926 2739 1818 2739 
Q 1664 2739 1544 2694 
Q 1424 2650 1329 2562 
Q 1235 2474 1160 2344 
Q 1085 2214 1024 2048 
L 1024 0 
L 451 0 
L 451 3242 
L 778 3242 
Q 870 3242 905 3206 
Q 941 3171 954 3085 
L 992 2592 
z
" transform="scale(0.015625)"/>
      <path id="Lato-Regular-64" d="M 2563 2470 
Q 2403 2685 2217 2769 
Q 2032 2854 1802 2854 
Q 1350 2854 1107 2531 
Q 864 2208 864 1610 
Q 864 1293 918 1067 
Q 973 842 1078 696 
Q 1184 550 1337 483 
Q 1491 416 1686 416 
Q 1968 416 2177 544 
Q 2387 672 2563 906 
L 2563 2470 
z
M 3133 4714 
L 3133 0 
L 2794 0 
Q 2672 0 2640 118 
L 2589 512 
Q 2381 262 2115 108 
Q 1850 -45 1501 -45 
Q 1222 -45 995 62 
Q 768 170 608 378 
Q 448 586 361 896 
Q 275 1206 275 1610 
Q 275 1968 371 2277 
Q 467 2586 646 2813 
Q 826 3040 1086 3169 
Q 1347 3299 1674 3299 
Q 1971 3299 2184 3198 
Q 2397 3098 2563 2918 
L 2563 4714 
L 3133 4714 
z
" transform="scale(0.015625)"/>
     </defs>
     <use xlink:href="#Lato-Regular-75"/>
     <use xlink:href="#Lato-Regular-6e" x="55.75"/>
     <use xlink:href="#Lato-Regular-63" x="111.550003"/>
     <use xlink:href="#Lato-Regular-6f" x="159.300003"/>
     <use xlink:href="#Lato-Regular-76" x="216.000015"/>
     <use xlink:href="#Lato-Regular-65" x="267.600021"/>
     <use xlink:href="#Lato-Regular-72" x="320.400024"/>
     <use xlink:href="#Lato-Regular-65" x="356.800034"/>
     <use xlink:href="#Lato-Regular-64" x="409.600037"/>
    </g>
   </g>
   <g id="text_2">
    <!-- 24% -->
    <g transform="translate(83.835774 86.589003) scale(0.1 -0.1)">
     <defs>
      <path id="Lato-Regular-32" d="M 3158 541 
Q 3251 541 3305 486 
Q 3360 432 3360 346 
L 3360 0 
L 301 0 
L 301 195 
Q 301 256 326 320 
Q 352 384 406 438 
L 1875 1914 
Q 2058 2099 2208 2270 
Q 2358 2442 2464 2614 
Q 2570 2787 2627 2964 
Q 2685 3142 2685 3344 
Q 2685 3546 2621 3698 
Q 2557 3850 2446 3949 
Q 2336 4048 2185 4097 
Q 2035 4147 1862 4147 
Q 1686 4147 1539 4096 
Q 1392 4045 1278 3953 
Q 1165 3862 1088 3737 
Q 1011 3613 979 3462 
Q 941 3350 875 3313 
Q 810 3277 691 3293 
L 394 3344 
Q 438 3658 568 3899 
Q 698 4141 894 4304 
Q 1091 4467 1344 4552 
Q 1597 4637 1891 4637 
Q 2182 4637 2435 4550 
Q 2688 4464 2873 4299 
Q 3059 4134 3164 3897 
Q 3270 3661 3270 3360 
Q 3270 3104 3193 2885 
Q 3117 2666 2985 2467 
Q 2854 2269 2683 2080 
Q 2512 1891 2320 1699 
L 1110 464 
Q 1238 499 1369 520 
Q 1501 541 1622 541 
L 3158 541 
z
" transform="scale(0.015625)"/>
      <path id="Lato-Regular-34" d="M 2336 1654 
L 2336 3546 
Q 2336 3629 2342 3728 
Q 2349 3827 2362 3930 
L 691 1654 
L 2336 1654 
z
M 3530 1654 
L 3530 1328 
Q 3530 1277 3499 1241 
Q 3469 1206 3405 1206 
L 2835 1206 
L 2835 0 
L 2336 0 
L 2336 1206 
L 301 1206 
Q 237 1206 190 1243 
Q 144 1280 131 1334 
L 74 1626 
L 2304 4586 
L 2835 4586 
L 2835 1654 
L 3530 1654 
z
" transform="scale(0.015625)"/>
      <path id="Lato-Regular-25" d="M 2310 3478 
Q 2310 3210 2227 2997 
Q 2144 2784 2005 2638 
Q 1866 2493 1682 2416 
Q 1498 2339 1293 2339 
Q 1078 2339 892 2416 
Q 707 2493 571 2638 
Q 435 2784 358 2997 
Q 282 3210 282 3478 
Q 282 3754 358 3968 
Q 435 4182 571 4329 
Q 707 4477 892 4553 
Q 1078 4630 1293 4630 
Q 1510 4630 1696 4553 
Q 1882 4477 2019 4329 
Q 2157 4182 2233 3968 
Q 2310 3754 2310 3478 
z
M 1869 3478 
Q 1869 3690 1824 3837 
Q 1779 3984 1700 4078 
Q 1622 4173 1516 4214 
Q 1411 4256 1293 4256 
Q 1174 4256 1072 4214 
Q 970 4173 893 4078 
Q 816 3984 771 3837 
Q 726 3690 726 3478 
Q 726 3270 771 3124 
Q 816 2979 893 2888 
Q 970 2797 1072 2757 
Q 1174 2717 1293 2717 
Q 1411 2717 1516 2757 
Q 1622 2797 1700 2888 
Q 1779 2979 1824 3124 
Q 1869 3270 1869 3478 
z
M 3933 4490 
Q 3965 4528 4008 4557 
Q 4051 4586 4125 4586 
L 4538 4586 
L 1184 93 
Q 1155 51 1110 25 
Q 1066 0 1002 0 
L 582 0 
L 3933 4490 
z
M 4848 1082 
Q 4848 813 4765 601 
Q 4682 390 4542 244 
Q 4403 99 4219 22 
Q 4035 -54 3830 -54 
Q 3613 -54 3429 22 
Q 3245 99 3109 244 
Q 2973 390 2896 601 
Q 2819 813 2819 1082 
Q 2819 1357 2896 1573 
Q 2973 1789 3109 1936 
Q 3245 2083 3429 2160 
Q 3613 2237 3830 2237 
Q 4045 2237 4232 2160 
Q 4419 2083 4555 1936 
Q 4691 1789 4769 1573 
Q 4848 1357 4848 1082 
z
M 4406 1082 
Q 4406 1293 4361 1441 
Q 4317 1590 4238 1683 
Q 4160 1776 4054 1817 
Q 3949 1859 3830 1859 
Q 3712 1859 3608 1817 
Q 3504 1776 3427 1683 
Q 3350 1590 3307 1441 
Q 3264 1293 3264 1082 
Q 3264 874 3307 730 
Q 3350 586 3427 494 
Q 3504 403 3608 363 
Q 3712 323 3830 323 
Q 3949 323 4054 363 
Q 4160 403 4238 494 
Q 4317 586 4361 730 
Q 4406 874 4406 1082 
z
" transform="scale(0.015625)"/>
     </defs>
     <use xlink:href="#Lato-Regular-32"/>
     <use xlink:href="#Lato-Regular-34" x="58"/>
     <use xlink:href="#Lato-Regular-25" x="116"/>
    </g>
    <!-- (4) -->
    <g transform="translate(88.073274 97.310253) scale(0.1 -0.1)">
     <defs>
      <path id="Lato-Regular-28" d="M 784 2013 
Q 784 1328 958 681 
Q 1133 35 1469 -547 
Q 1520 -646 1494 -699 
Q 1469 -752 1421 -784 
L 1168 -938 
Q 928 -570 760 -208 
Q 592 154 488 518 
Q 384 883 336 1252 
Q 288 1622 288 2013 
Q 288 2400 336 2771 
Q 384 3142 488 3505 
Q 592 3869 760 4230 
Q 928 4592 1168 4963 
L 1421 4806 
Q 1469 4774 1494 4721 
Q 1520 4669 1469 4573 
Q 1133 3990 958 3344 
Q 784 2698 784 2013 
z
" transform="scale(0.015625)"/>
      <path id="Lato-Regular-29" d="M 925 2013 
Q 925 2698 750 3344 
Q 576 3990 240 4573 
Q 214 4621 208 4657 
Q 202 4694 211 4721 
Q 221 4749 241 4769 
Q 262 4790 288 4806 
L 541 4963 
Q 781 4592 949 4230 
Q 1117 3869 1221 3505 
Q 1325 3142 1373 2771 
Q 1421 2400 1421 2013 
Q 1421 1622 1373 1252 
Q 1325 883 1221 518 
Q 1117 154 949 -208 
Q 781 -570 541 -938 
L 288 -784 
Q 262 -768 241 -747 
Q 221 -726 211 -699 
Q 202 -672 208 -633 
Q 214 -595 240 -547 
Q 576 35 750 681 
Q 925 1328 925 2013 
z
" transform="scale(0.015625)"/>
     </defs>
     <use xlink:href="#Lato-Regular-28"/>
     <use xlink:href="#Lato-Regular-34" x="26.699997"/>
     <use xlink:href="#Lato-Regular-29" x="84.699997"/>
    </g>
   </g>
   <g id="text_3">
    <!-- covered -->
    <g transform="translate(83.336203 258.176611) scale(0.1 -0.1)">
     <use xlink:href="#Lato-Regular-63"/>
     <use xlink:href="#Lato-Regular-6f" x="47.75"/>
     <use xlink:href="#Lato-Regular-76" x="104.450012"/>
     <use xlink:href="#Lato-Regular-65" x="156.050018"/>
     <use xlink:href="#Lato-Regular-72" x="208.850021"/>
     <use xlink:href="#Lato-Regular-65" x="245.250031"/>
     <use xlink:href="#Lato-Regular-64" x="298.050034"/>
    </g>
   </g>
   <g id="text_4">
    <!-- 47% -->
    <g transform="translate(118.712673 200.499799) scale(0.1 -0.1)">
     <defs>
      <path id="Lato-Regular-37" d="M 3459 4586 
L 3459 4330 
Q 3459 4221 3435 4150 
Q 3411 4080 3389 4032 
L 1488 202 
Q 1446 118 1372 59 
Q 1299 0 1178 0 
L 768 0 
L 2694 3782 
Q 2736 3862 2781 3929 
Q 2826 3997 2877 4058 
L 483 4058 
Q 429 4058 387 4101 
Q 346 4144 346 4198 
L 346 4586 
L 3459 4586 
z
" transform="scale(0.015625)"/>
     </defs>
     <use xlink:href="#Lato-Regular-34"/>
     <use xlink:href="#Lato-Regular-37" x="58"/>
     <use xlink:href="#Lato-Regular-25" x="116"/>
    </g>
    <!-- (8) -->
    <g transform="translate(122.950173 211.221049) scale(0.1 -0.1)">
     <defs>
      <path id="Lato-Regular-38" d="M 1856 403 
Q 2080 403 2257 465 
Q 2435 528 2558 641 
Q 2682 755 2747 913 
Q 2813 1072 2813 1264 
Q 2813 1501 2734 1669 
Q 2656 1837 2523 1942 
Q 2390 2048 2217 2097 
Q 2045 2147 1856 2147 
Q 1667 2147 1494 2097 
Q 1322 2048 1189 1942 
Q 1056 1837 977 1669 
Q 899 1501 899 1264 
Q 899 1072 964 913 
Q 1030 755 1153 641 
Q 1277 528 1454 465 
Q 1632 403 1856 403 
z
M 1856 4195 
Q 1651 4195 1496 4134 
Q 1341 4074 1237 3968 
Q 1133 3862 1080 3721 
Q 1027 3581 1027 3421 
Q 1027 3264 1072 3117 
Q 1117 2970 1216 2856 
Q 1315 2742 1473 2673 
Q 1632 2605 1856 2605 
Q 2080 2605 2238 2673 
Q 2397 2742 2496 2856 
Q 2595 2970 2640 3117 
Q 2685 3264 2685 3421 
Q 2685 3581 2632 3721 
Q 2579 3862 2475 3968 
Q 2371 4074 2216 4134 
Q 2061 4195 1856 4195 
z
M 2512 2390 
Q 2941 2269 3171 1984 
Q 3402 1699 3402 1254 
Q 3402 954 3288 712 
Q 3174 470 2971 300 
Q 2768 131 2483 40 
Q 2198 -51 1856 -51 
Q 1514 -51 1229 40 
Q 944 131 739 300 
Q 534 470 422 712 
Q 310 954 310 1254 
Q 310 1699 540 1984 
Q 771 2269 1200 2390 
Q 838 2525 654 2792 
Q 470 3059 470 3430 
Q 470 3683 569 3904 
Q 669 4125 851 4288 
Q 1034 4451 1288 4544 
Q 1542 4637 1856 4637 
Q 2166 4637 2422 4544 
Q 2678 4451 2860 4288 
Q 3043 4125 3142 3904 
Q 3242 3683 3242 3430 
Q 3242 3059 3058 2792 
Q 2874 2525 2512 2390 
z
" transform="scale(0.015625)"/>
     </defs>
     <use xlink:href="#Lato-Regular-28"/>
     <use xlink:href="#Lato-Regular-38" x="26.699997"/>
     <use xlink:href="#Lato-Regular-29" x="84.699997"/>
    </g>
   </g>
   <g id="text_5">
    <!-- skipped -->
    <g transform="translate(256.845793 132.27731) scale(0.1 -0.1)">
     <defs>
      <path id="Lato-Regular-73" d="M 2339 2707 
Q 2301 2637 2221 2637 
Q 2173 2637 2112 2672 
Q 2051 2707 1963 2750 
Q 1875 2794 1753 2830 
Q 1632 2867 1466 2867 
Q 1322 2867 1206 2830 
Q 1091 2794 1009 2730 
Q 928 2666 885 2581 
Q 842 2496 842 2397 
Q 842 2272 914 2189 
Q 986 2106 1104 2045 
Q 1222 1984 1372 1937 
Q 1523 1891 1681 1838 
Q 1840 1786 1990 1722 
Q 2141 1658 2259 1562 
Q 2378 1466 2450 1326 
Q 2522 1187 2522 992 
Q 2522 768 2442 577 
Q 2362 387 2205 248 
Q 2048 109 1821 29 
Q 1594 -51 1296 -51 
Q 957 -51 681 59 
Q 406 170 214 342 
L 349 560 
Q 374 602 409 624 
Q 445 646 499 646 
Q 557 646 621 601 
Q 685 557 776 502 
Q 867 448 998 403 
Q 1130 358 1325 358 
Q 1491 358 1616 401 
Q 1741 445 1824 518 
Q 1907 592 1947 688 
Q 1987 784 1987 893 
Q 1987 1027 1915 1115 
Q 1843 1203 1724 1265 
Q 1606 1328 1454 1374 
Q 1302 1421 1144 1472 
Q 986 1523 834 1588 
Q 682 1654 563 1753 
Q 445 1853 373 1998 
Q 301 2144 301 2352 
Q 301 2538 377 2709 
Q 454 2880 601 3009 
Q 749 3139 963 3216 
Q 1178 3293 1453 3293 
Q 1773 3293 2027 3192 
Q 2282 3091 2467 2915 
L 2339 2707 
z
" transform="scale(0.015625)"/>
      <path id="Lato-Regular-6b" d="M 1024 4714 
L 1024 1939 
L 1171 1939 
Q 1235 1939 1278 1956 
Q 1322 1974 1370 2029 
L 2394 3126 
Q 2438 3181 2488 3211 
Q 2538 3242 2621 3242 
L 3136 3242 
L 1942 1971 
Q 1856 1862 1757 1802 
Q 1814 1763 1860 1713 
Q 1907 1664 1949 1600 
L 3216 0 
L 2707 0 
Q 2634 0 2581 24 
Q 2528 48 2490 112 
L 1424 1440 
Q 1376 1507 1329 1528 
Q 1283 1549 1187 1549 
L 1024 1549 
L 1024 0 
L 451 0 
L 451 4714 
L 1024 4714 
z
" transform="scale(0.015625)"/>
      <path id="Lato-Regular-69" d="M 1053 3242 
L 1053 0 
L 483 0 
L 483 3242 
L 1053 3242 
z
M 1174 4259 
Q 1174 4176 1140 4104 
Q 1107 4032 1051 3976 
Q 995 3920 920 3888 
Q 845 3856 762 3856 
Q 678 3856 606 3888 
Q 534 3920 480 3976 
Q 426 4032 394 4104 
Q 362 4176 362 4259 
Q 362 4342 394 4417 
Q 426 4493 480 4549 
Q 534 4605 606 4637 
Q 678 4669 762 4669 
Q 845 4669 920 4637 
Q 995 4605 1051 4549 
Q 1107 4493 1140 4417 
Q 1174 4342 1174 4259 
z
" transform="scale(0.015625)"/>
      <path id="Lato-Regular-70" d="M 1024 781 
Q 1181 570 1366 483 
Q 1552 397 1782 397 
Q 2237 397 2480 720 
Q 2723 1043 2723 1642 
Q 2723 1958 2667 2185 
Q 2611 2413 2505 2558 
Q 2400 2704 2246 2771 
Q 2093 2838 1898 2838 
Q 1619 2838 1409 2710 
Q 1200 2582 1024 2349 
L 1024 781 
z
M 995 2739 
Q 1200 2992 1469 3145 
Q 1738 3299 2083 3299 
Q 2365 3299 2592 3192 
Q 2819 3085 2979 2875 
Q 3139 2666 3225 2355 
Q 3312 2045 3312 1642 
Q 3312 1283 3216 974 
Q 3120 666 2939 440 
Q 2758 214 2497 84 
Q 2237 -45 1910 -45 
Q 1613 -45 1400 56 
Q 1187 157 1024 336 
L 1024 -1098 
L 451 -1098 
L 451 3242 
L 794 3242 
Q 915 3242 944 3123 
L 995 2739 
z
" transform="scale(0.015625)"/>
     </defs>
     <use xlink:href="#Lato-Regular-73"/>
     <use xlink:href="#Lato-Regular-6b" x="43.300003"/>
     <use xlink:href="#Lato-Regular-69" x="94.100006"/>
     <use xlink:href="#Lato-Regular-70" x="118.100006"/>
     <use xlink:href="#Lato-Regular-70" x="174.150009"/>
     <use xlink:href="#Lato-Regular-65" x="230.200012"/>
     <use xlink:href="#Lato-Regular-64" x="283.000015"/>
    </g>
   </g>
   <g id="text_6">
    <!-- 12% -->
    <g transform="translate(194.04262 131.827453) scale(0.1 -0.1)">
     <defs>
      <path id="Lato-Regular-31" d="M 3258 435 
L 3258 0 
L 800 0 
L 800 435 
L 1782 435 
L 1782 3562 
Q 1782 3702 1792 3846 
L 976 3146 
Q 934 3110 892 3102 
Q 851 3094 816 3100 
Q 781 3107 750 3126 
Q 720 3146 704 3168 
L 525 3414 
L 1891 4595 
L 2355 4595 
L 2355 435 
L 3258 435 
z
" transform="scale(0.015625)"/>
     </defs>
     <use xlink:href="#Lato-Regular-31"/>
     <use xlink:href="#Lato-Regular-32" x="58"/>
     <use xlink:href="#Lato-Regular-25" x="116"/>
    </g>
    <!-- (2) -->
    <g transform="translate(198.28012 142.548703) scale(0.1 -0.1)">
     <use xlink:href="#Lato-Regular-28"/>
     <use xlink:href="#Lato-Regular-32" x="26.699997"/>
     <use xlink:href="#Lato-Regular-29" x="84.699997"/>
    </g>
   </g>
   <g id="text_7">
    <!-- passes -->
    <g transform="translate(201.895608 43.529715) scale(0.1 -0.1)">
     <defs>
      <path id="Lato-Regular-61" d="M 2208 1459 
Q 1814 1446 1537 1396 
Q 1261 1347 1086 1267 
Q 912 1187 833 1078 
Q 755 970 755 835 
Q 755 707 796 614 
Q 838 522 910 462 
Q 982 403 1080 376 
Q 1178 349 1290 349 
Q 1440 349 1565 379 
Q 1690 410 1800 467 
Q 1910 525 2011 605 
Q 2112 685 2208 787 
L 2208 1459 
z
M 368 2784 
Q 637 3043 947 3171 
Q 1258 3299 1635 3299 
Q 1907 3299 2118 3209 
Q 2330 3120 2474 2960 
Q 2618 2800 2691 2573 
Q 2765 2346 2765 2074 
L 2765 0 
L 2512 0 
Q 2429 0 2384 27 
Q 2339 54 2314 134 
L 2250 442 
Q 2122 323 2000 232 
Q 1878 141 1744 78 
Q 1610 16 1458 -17 
Q 1306 -51 1120 -51 
Q 931 -51 764 1 
Q 598 54 475 160 
Q 352 266 280 427 
Q 208 589 208 810 
Q 208 1002 313 1179 
Q 419 1357 656 1494 
Q 893 1632 1273 1720 
Q 1654 1808 2208 1821 
L 2208 2074 
Q 2208 2451 2045 2644 
Q 1882 2838 1568 2838 
Q 1357 2838 1214 2785 
Q 1072 2733 968 2667 
Q 864 2602 789 2549 
Q 714 2496 640 2496 
Q 582 2496 540 2526 
Q 499 2557 470 2602 
L 368 2784 
z
" transform="scale(0.015625)"/>
     </defs>
     <use xlink:href="#Lato-Regular-70"/>
     <use xlink:href="#Lato-Regular-61" x="56.050003"/>
     <use xlink:href="#Lato-Regular-73" x="105.750015"/>
     <use xlink:href="#Lato-Regular-73" x="149.050018"/>
     <use xlink:href="#Lato-Regular-65" x="192.350021"/>
     <use xlink:href="#Lato-Regular-73" x="245.150024"/>
    </g>
   </g>
   <g id="text_8">
    <!-- 18% -->
    <g transform="translate(164.069792 83.419674) scale(0.1 -0.1)">
     <use xlink:href="#Lato-Regular-31"/>
     <use xlink:href="#Lato-Regular-38" x="58"/>
     <use xlink:href="#Lato-Regular-25" x="116"/>
    </g>
    <!-- (3) -->
    <g transform="translate(168.307292 94.140924) scale(0.1 -0.1)">
     <defs>
      <path id="Lato-Regular-33" d="M 416 3344 
Q 461 3658 589 3899 
Q 717 4141 913 4304 
Q 1110 4467 1364 4552 
Q 1619 4637 1914 4637 
Q 2205 4637 2451 4553 
Q 2698 4470 2875 4316 
Q 3053 4163 3152 3945 
Q 3251 3728 3251 3462 
Q 3251 3245 3195 3073 
Q 3139 2902 3035 2774 
Q 2931 2646 2784 2556 
Q 2637 2467 2454 2410 
Q 2902 2294 3128 2014 
Q 3354 1734 3354 1315 
Q 3354 998 3234 745 
Q 3114 493 2906 315 
Q 2698 138 2421 43 
Q 2144 -51 1827 -51 
Q 1462 -51 1203 40 
Q 944 131 765 291 
Q 586 451 470 670 
Q 355 890 275 1146 
L 522 1248 
Q 618 1290 709 1270 
Q 800 1251 842 1165 
Q 883 1075 945 950 
Q 1008 826 1117 710 
Q 1226 595 1394 515 
Q 1562 435 1821 435 
Q 2061 435 2241 513 
Q 2422 592 2542 717 
Q 2662 842 2723 995 
Q 2784 1149 2784 1299 
Q 2784 1485 2736 1638 
Q 2688 1792 2557 1904 
Q 2426 2016 2197 2080 
Q 1968 2144 1610 2144 
L 1610 2557 
Q 1904 2560 2110 2621 
Q 2317 2682 2446 2787 
Q 2576 2893 2635 3040 
Q 2694 3187 2694 3366 
Q 2694 3565 2632 3712 
Q 2570 3859 2461 3955 
Q 2352 4051 2203 4099 
Q 2054 4147 1882 4147 
Q 1709 4147 1560 4096 
Q 1411 4045 1297 3953 
Q 1184 3862 1107 3737 
Q 1030 3613 998 3462 
Q 957 3350 894 3313 
Q 832 3277 714 3293 
L 416 3344 
z
" transform="scale(0.015625)"/>
     </defs>
     <use xlink:href="#Lato-Regular-28"/>
     <use xlink:href="#Lato-Regular-33" x="26.699997"/>
     <use xlink:href="#Lato-Regular-29" x="84.699997"/>
    </g>
   </g>
  </g>
 </g>
</svg>
