<?xml version="1.0" encoding="utf-8" standalone="no"?>
<!DOCTYPE svg PUBLIC "-//W3C//DTD SVG 1.1//EN"
  "http://www.w3.org/Graphics/SVG/1.1/DTD/svg11.dtd">
<svg xmlns:xlink="http://www.w3.org/1999/xlink" width="306.954819pt" height="280.512pt" viewBox="0 0 306.954819 280.512" xmlns="http://www.w3.org/2000/svg" version="1.1">
 <metadata>
  <rdf:RDF xmlns:dc="http://purl.org/dc/elements/1.1/" xmlns:cc="http://creativecommons.org/ns#" xmlns:rdf="http://www.w3.org/1999/02/22-rdf-syntax-ns#">
   <cc:Work>
    <dc:type rdf:resource="http://purl.org/dc/dcmitype/StillImage"/>
    <dc:date>2024-07-03T13:34:38.352104</dc:date>
    <dc:format>image/svg+xml</dc:format>
    <dc:creator>
     <cc:Agent>
      <dc:title>Matplotlib v3.9.0, https://matplotlib.org/</dc:title>
     </cc:Agent>
    </dc:creator>
   </cc:Work>
  </rdf:RDF>
 </metadata>
 <defs>
  <style type="text/css">*{stroke-linejoin: round; stroke-linecap: butt}</style>
 </defs>
 <g id="figure_1">
  <g id="patch_1">
   <path d="M 0 280.512 
L 306.954819 280.512 
L 306.954819 0 
L 0 0 
L 0 280.512 
z
" style="fill: none"/>
  </g>
  <g id="axes_1">
   <g id="patch_2">
    <path d="M 136.492608 30.047808 
C 108.272519 30.047808 81.179384 41.270152 61.224768 61.224768 
C 41.270152 81.179384 30.047808 108.272519 30.047808 136.492608 
L 136.492608 136.492608 
z
" style="fill: #ffa500"/>
   </g>
   <g id="patch_3">
    <path d="M 33.8112 140.256009 
C 33.8112 164.877078 42.35362 188.751536 57.973065 207.783878 
C 73.592511 226.816219 95.341663 239.852155 119.489643 244.65549 
C 143.637625 249.458825 168.719885 245.738228 190.433729 234.131935 
C 212.147576 222.525643 229.176101 203.737562 238.598175 180.990661 
L 140.256 140.256 
z
" style="fill: #00bfbf"/>
   </g>
   <g id="patch_4">
    <path d="M 238.598175 180.990661 
C 241.266392 174.549012 243.295251 167.860756 244.655496 161.022339 
C 246.015741 154.183923 246.7008 147.228371 246.7008 140.255981 
L 140.256 140.256 
z
" style="fill: #0000ff"/>
   </g>
   <g id="patch_5">
    <path d="M 246.7008 140.255981 
C 246.7008 126.277782 243.9474 112.435525 238.598175 99.521352 
C 233.248951 86.607179 225.40792 74.872243 215.523839 64.988161 
L 140.256 140.256 
z
" style="fill: #8b0000"/>
   </g>
   <g id="patch_6">
    <path d="M 215.523839 64.988161 
C 210.593618 60.057941 205.190883 55.624033 199.393551 51.750379 
C 193.596219 47.876725 187.432293 44.582035 180.990645 41.913818 
L 140.256 140.256 
z
" style="fill: #008000"/>
   </g>
   <g id="patch_7">
    <path d="M 180.990645 41.913818 
C 174.549006 39.245608 167.860781 37.216755 161.022373 35.85651 
C 154.183964 34.496265 147.228396 33.8112 140.256015 33.8112 
L 140.256 140.256 
z
" style="fill: #ffc0cb"/>
   </g>
   <g id="matplotlib.axis_1"/>
   <g id="matplotlib.axis_2"/>
   <g id="text_1">
    <!-- uncovered -->
    <g transform="translate(7.701109 56.522985) scale(0.1 -0.1)">
     <defs>
      <path id="Lato-Regular-75" d="M 989 3242 
L 989 1174 
Q 989 806 1157 604 
Q 1325 403 1670 403 
Q 1920 403 2141 521 
Q 2362 640 2547 851 
L 2547 3242 
L 3117 3242 
L 3117 0 
L 2778 0 
Q 2656 0 2624 118 
L 2579 467 
Q 2368 234 2105 91 
Q 1843 -51 1504 -51 
Q 1238 -51 1035 37 
Q 832 125 694 285 
Q 557 445 488 672 
Q 419 899 419 1174 
L 419 3242 
L 989 3242 
z
" transform="scale(0.015625)"/>
      <path id="Lato-Regular-6e" d="M 451 0 
L 451 3242 
L 794 3242 
Q 915 3242 944 3123 
L 989 2771 
Q 1200 3005 1462 3149 
Q 1725 3293 2067 3293 
Q 2333 3293 2536 3205 
Q 2739 3117 2875 2955 
Q 3011 2794 3081 2566 
Q 3152 2339 3152 2064 
L 3152 0 
L 2579 0 
L 2579 2064 
Q 2579 2432 2411 2635 
Q 2243 2838 1901 2838 
Q 1645 2838 1425 2716 
Q 1206 2595 1024 2387 
L 1024 0 
L 451 0 
z
" transform="scale(0.015625)"/>
      <path id="Lato-Regular-63" d="M 2707 2666 
Q 2682 2630 2656 2611 
Q 2630 2592 2586 2592 
Q 2538 2592 2480 2632 
Q 2422 2672 2337 2720 
Q 2253 2768 2129 2808 
Q 2006 2848 1827 2848 
Q 1587 2848 1404 2763 
Q 1222 2678 1099 2518 
Q 976 2358 913 2131 
Q 851 1904 851 1622 
Q 851 1328 918 1099 
Q 986 870 1109 715 
Q 1232 560 1406 478 
Q 1581 397 1798 397 
Q 2006 397 2140 446 
Q 2275 496 2363 557 
Q 2451 618 2510 667 
Q 2570 717 2627 717 
Q 2698 717 2736 662 
L 2896 454 
Q 2790 323 2656 230 
Q 2522 138 2366 75 
Q 2211 13 2041 -16 
Q 1872 -45 1696 -45 
Q 1392 -45 1131 67 
Q 870 179 678 392 
Q 486 605 377 915 
Q 269 1226 269 1622 
Q 269 1984 369 2291 
Q 470 2598 664 2820 
Q 858 3043 1141 3168 
Q 1424 3293 1792 3293 
Q 2134 3293 2395 3182 
Q 2656 3072 2858 2870 
L 2707 2666 
z
" transform="scale(0.015625)"/>
      <path id="Lato-Regular-6f" d="M 1818 3293 
Q 2173 3293 2457 3174 
Q 2742 3056 2944 2838 
Q 3146 2621 3253 2312 
Q 3360 2003 3360 1622 
Q 3360 1238 3253 931 
Q 3146 624 2944 406 
Q 2742 189 2457 72 
Q 2173 -45 1818 -45 
Q 1459 -45 1172 72 
Q 886 189 684 406 
Q 483 624 376 931 
Q 269 1238 269 1622 
Q 269 2003 376 2312 
Q 483 2621 684 2838 
Q 886 3056 1172 3174 
Q 1459 3293 1818 3293 
z
M 1818 400 
Q 2298 400 2534 721 
Q 2771 1043 2771 1619 
Q 2771 2198 2534 2521 
Q 2298 2845 1818 2845 
Q 1574 2845 1393 2761 
Q 1213 2678 1093 2521 
Q 973 2365 913 2136 
Q 854 1907 854 1619 
Q 854 1043 1092 721 
Q 1331 400 1818 400 
z
" transform="scale(0.015625)"/>
      <path id="Lato-Regular-76" d="M 74 3242 
L 538 3242 
Q 608 3242 653 3206 
Q 698 3171 714 3123 
L 1536 1037 
Q 1574 918 1603 806 
Q 1632 694 1658 582 
Q 1683 694 1712 806 
Q 1741 918 1782 1037 
L 2614 3123 
Q 2634 3174 2678 3208 
Q 2723 3242 2784 3242 
L 3229 3242 
L 1907 0 
L 1395 0 
L 74 3242 
z
" transform="scale(0.015625)"/>
      <path id="Lato-Regular-65" d="M 1779 3293 
Q 2070 3293 2318 3195 
Q 2566 3098 2747 2914 
Q 2928 2730 3030 2459 
Q 3133 2189 3133 1843 
Q 3133 1709 3104 1664 
Q 3075 1619 2995 1619 
L 829 1619 
Q 835 1312 912 1085 
Q 989 858 1123 706 
Q 1258 554 1443 478 
Q 1629 403 1859 403 
Q 2074 403 2229 452 
Q 2384 502 2496 560 
Q 2608 618 2683 667 
Q 2758 717 2813 717 
Q 2883 717 2922 662 
L 3082 454 
Q 2976 326 2829 232 
Q 2682 138 2514 77 
Q 2346 16 2166 -14 
Q 1987 -45 1811 -45 
Q 1475 -45 1192 68 
Q 909 182 702 401 
Q 496 621 381 944 
Q 266 1267 266 1686 
Q 266 2026 370 2320 
Q 474 2614 669 2830 
Q 864 3046 1145 3169 
Q 1427 3293 1779 3293 
z
M 1792 2874 
Q 1379 2874 1142 2635 
Q 906 2397 848 1974 
L 2621 1974 
Q 2621 2173 2565 2337 
Q 2509 2502 2401 2622 
Q 2294 2742 2140 2808 
Q 1987 2874 1792 2874 
z
" transform="scale(0.015625)"/>
      <path id="Lato-Regular-72" d="M 451 0 
L 451 3242 
L 778 3242 
Q 870 3242 905 3206 
Q 941 3171 954 3085 
L 989 2592 
Q 1142 2925 1368 3112 
Q 1594 3299 1917 3299 
Q 2019 3299 2113 3276 
Q 2208 3254 2282 3206 
L 2240 2781 
Q 2221 2701 2144 2701 
Q 2099 2701 2012 2720 
Q 1926 2739 1818 2739 
Q 1664 2739 1542 2692 
Q 1421 2646 1326 2558 
Q 1232 2470 1158 2342 
Q 1085 2214 1024 2048 
L 1024 0 
L 451 0 
z
" transform="scale(0.015625)"/>
      <path id="Lato-Regular-64" d="M 2794 0 
Q 2672 0 2640 118 
L 2589 512 
Q 2381 259 2113 107 
Q 1846 -45 1501 -45 
Q 1222 -45 995 62 
Q 768 170 608 378 
Q 448 586 361 896 
Q 275 1206 275 1610 
Q 275 1968 371 2277 
Q 467 2586 646 2813 
Q 826 3040 1086 3169 
Q 1347 3299 1674 3299 
Q 1971 3299 2184 3198 
Q 2397 3098 2563 2915 
L 2563 4714 
L 3133 4714 
L 3133 0 
L 2794 0 
z
M 1686 416 
Q 1968 416 2177 544 
Q 2387 672 2563 906 
L 2563 2470 
Q 2403 2682 2217 2768 
Q 2032 2854 1802 2854 
Q 1350 2854 1107 2531 
Q 864 2208 864 1610 
Q 864 1293 918 1067 
Q 973 842 1078 696 
Q 1184 550 1337 483 
Q 1491 416 1686 416 
z
" transform="scale(0.015625)"/>
     </defs>
     <use xlink:href="#Lato-Regular-75"/>
     <use xlink:href="#Lato-Regular-6e" x="55.75"/>
     <use xlink:href="#Lato-Regular-63" x="111.550003"/>
     <use xlink:href="#Lato-Regular-6f" x="158.425003"/>
     <use xlink:href="#Lato-Regular-76" x="213.750015"/>
     <use xlink:href="#Lato-Regular-65" x="263.975021"/>
     <use xlink:href="#Lato-Regular-72" x="316.775024"/>
     <use xlink:href="#Lato-Regular-65" x="351.175034"/>
     <use xlink:href="#Lato-Regular-64" x="403.975037"/>
    </g>
   </g>
   <g id="text_2">
    <!-- 25% -->
    <g transform="translate(81.524091 88.796279) scale(0.1 -0.1)">
     <defs>
      <path id="Lato-Regular-32" d="M 1891 4637 
Q 2182 4637 2435 4550 
Q 2688 4464 2873 4299 
Q 3059 4134 3164 3897 
Q 3270 3661 3270 3360 
Q 3270 3104 3193 2885 
Q 3117 2666 2985 2467 
Q 2854 2269 2683 2080 
Q 2512 1891 2320 1699 
L 1110 464 
Q 1238 499 1369 520 
Q 1501 541 1622 541 
L 3158 541 
Q 3251 541 3305 486 
Q 3360 432 3360 346 
L 3360 0 
L 301 0 
L 301 195 
Q 301 256 326 320 
Q 352 384 406 438 
L 1875 1914 
Q 2058 2099 2208 2270 
Q 2358 2442 2464 2614 
Q 2570 2787 2627 2964 
Q 2685 3142 2685 3344 
Q 2685 3546 2621 3698 
Q 2557 3850 2446 3949 
Q 2336 4048 2185 4097 
Q 2035 4147 1862 4147 
Q 1686 4147 1539 4096 
Q 1392 4045 1278 3953 
Q 1165 3862 1088 3737 
Q 1011 3613 979 3462 
Q 941 3350 875 3313 
Q 810 3277 691 3293 
L 394 3344 
Q 438 3658 568 3899 
Q 698 4141 894 4304 
Q 1091 4467 1344 4552 
Q 1597 4637 1891 4637 
z
" transform="scale(0.015625)"/>
      <path id="Lato-Regular-35" d="M 3142 4336 
Q 3142 4214 3067 4136 
Q 2992 4058 2810 4058 
L 1370 4058 
L 1158 2854 
Q 1341 2896 1502 2913 
Q 1664 2931 1818 2931 
Q 2176 2931 2451 2825 
Q 2726 2720 2910 2534 
Q 3094 2349 3188 2096 
Q 3283 1843 3283 1546 
Q 3283 1181 3156 886 
Q 3030 592 2808 382 
Q 2586 173 2285 61 
Q 1984 -51 1635 -51 
Q 1434 -51 1248 -11 
Q 1062 29 900 96 
Q 739 163 601 249 
Q 464 336 358 432 
L 534 675 
Q 592 758 685 758 
Q 749 758 829 708 
Q 909 659 1024 598 
Q 1139 538 1294 488 
Q 1450 438 1664 438 
Q 1904 438 2096 515 
Q 2288 592 2425 734 
Q 2563 877 2636 1075 
Q 2710 1274 2710 1520 
Q 2710 1734 2648 1907 
Q 2586 2080 2459 2201 
Q 2333 2323 2144 2390 
Q 1955 2458 1702 2458 
Q 1530 2458 1342 2429 
Q 1155 2400 960 2336 
L 602 2442 
L 970 4586 
L 3142 4586 
L 3142 4336 
z
" transform="scale(0.015625)"/>
      <path id="Lato-Regular-25" d="M 2310 3478 
Q 2310 3210 2227 2997 
Q 2144 2784 2005 2638 
Q 1866 2493 1682 2416 
Q 1498 2339 1293 2339 
Q 1078 2339 892 2416 
Q 707 2493 571 2638 
Q 435 2784 358 2997 
Q 282 3210 282 3478 
Q 282 3754 358 3968 
Q 435 4182 571 4329 
Q 707 4477 892 4553 
Q 1078 4630 1293 4630 
Q 1510 4630 1696 4553 
Q 1882 4477 2019 4329 
Q 2157 4182 2233 3968 
Q 2310 3754 2310 3478 
z
M 1869 3478 
Q 1869 3690 1824 3837 
Q 1779 3984 1700 4078 
Q 1622 4173 1516 4214 
Q 1411 4256 1293 4256 
Q 1174 4256 1072 4214 
Q 970 4173 893 4078 
Q 816 3984 771 3837 
Q 726 3690 726 3478 
Q 726 3270 771 3124 
Q 816 2979 893 2888 
Q 970 2797 1072 2757 
Q 1174 2717 1293 2717 
Q 1411 2717 1516 2757 
Q 1622 2797 1700 2888 
Q 1779 2979 1824 3124 
Q 1869 3270 1869 3478 
z
M 3933 4490 
Q 3965 4528 4008 4557 
Q 4051 4586 4125 4586 
L 4538 4586 
L 1184 93 
Q 1155 51 1110 25 
Q 1066 0 1002 0 
L 582 0 
L 3933 4490 
z
M 4848 1082 
Q 4848 813 4765 601 
Q 4682 390 4542 244 
Q 4403 99 4219 22 
Q 4035 -54 3830 -54 
Q 3613 -54 3429 22 
Q 3245 99 3109 244 
Q 2973 390 2896 601 
Q 2819 813 2819 1082 
Q 2819 1357 2896 1573 
Q 2973 1789 3109 1936 
Q 3245 2083 3429 2160 
Q 3613 2237 3830 2237 
Q 4045 2237 4232 2160 
Q 4419 2083 4555 1936 
Q 4691 1789 4769 1573 
Q 4848 1357 4848 1082 
z
M 4406 1082 
Q 4406 1293 4361 1441 
Q 4317 1590 4238 1683 
Q 4160 1776 4054 1817 
Q 3949 1859 3830 1859 
Q 3712 1859 3608 1817 
Q 3504 1776 3427 1683 
Q 3350 1590 3307 1441 
Q 3264 1293 3264 1082 
Q 3264 874 3307 730 
Q 3350 586 3427 494 
Q 3504 403 3608 363 
Q 3712 323 3830 323 
Q 3949 323 4054 363 
Q 4160 403 4238 494 
Q 4317 586 4361 730 
Q 4406 874 4406 1082 
z
" transform="scale(0.015625)"/>
     </defs>
     <use xlink:href="#Lato-Regular-32"/>
     <use xlink:href="#Lato-Regular-35" x="58"/>
     <use xlink:href="#Lato-Regular-25" x="116"/>
    </g>
    <!-- (4) -->
    <g transform="translate(85.761591 99.517529) scale(0.1 -0.1)">
     <defs>
      <path id="Lato-Regular-28" d="M 784 2013 
Q 784 1328 958 681 
Q 1133 35 1469 -547 
Q 1520 -646 1494 -699 
Q 1469 -752 1421 -784 
L 1168 -938 
Q 928 -570 760 -208 
Q 592 154 488 518 
Q 384 883 336 1252 
Q 288 1622 288 2013 
Q 288 2400 336 2771 
Q 384 3142 488 3505 
Q 592 3869 760 4230 
Q 928 4592 1168 4963 
L 1421 4806 
Q 1469 4774 1494 4721 
Q 1520 4669 1469 4573 
Q 1133 3990 958 3344 
Q 784 2698 784 2013 
z
" transform="scale(0.015625)"/>
      <path id="Lato-Regular-34" d="M 2835 1654 
L 3530 1654 
L 3530 1328 
Q 3530 1277 3499 1241 
Q 3469 1206 3405 1206 
L 2835 1206 
L 2835 0 
L 2336 0 
L 2336 1206 
L 301 1206 
Q 237 1206 190 1243 
Q 144 1280 131 1334 
L 74 1626 
L 2304 4586 
L 2835 4586 
L 2835 1654 
z
M 2336 3546 
Q 2336 3629 2341 3726 
Q 2346 3824 2362 3926 
L 691 1654 
L 2336 1654 
L 2336 3546 
z
" transform="scale(0.015625)"/>
      <path id="Lato-Regular-29" d="M 925 2013 
Q 925 2698 750 3344 
Q 576 3990 240 4573 
Q 214 4621 208 4657 
Q 202 4694 211 4721 
Q 221 4749 241 4769 
Q 262 4790 288 4806 
L 541 4963 
Q 781 4592 949 4230 
Q 1117 3869 1221 3505 
Q 1325 3142 1373 2771 
Q 1421 2400 1421 2013 
Q 1421 1622 1373 1252 
Q 1325 883 1221 518 
Q 1117 154 949 -208 
Q 781 -570 541 -938 
L 288 -784 
Q 262 -768 241 -747 
Q 221 -726 211 -699 
Q 202 -672 208 -633 
Q 214 -595 240 -547 
Q 576 35 750 681 
Q 925 1328 925 2013 
z
" transform="scale(0.015625)"/>
     </defs>
     <use xlink:href="#Lato-Regular-28"/>
     <use xlink:href="#Lato-Regular-34" x="26.699997"/>
     <use xlink:href="#Lato-Regular-29" x="84.699997"/>
    </g>
   </g>
   <g id="text_3">
    <!-- covered -->
    <g transform="translate(82.570819 257.920441) scale(0.1 -0.1)">
     <use xlink:href="#Lato-Regular-63"/>
     <use xlink:href="#Lato-Regular-6f" x="46.875"/>
     <use xlink:href="#Lato-Regular-76" x="102.200012"/>
     <use xlink:href="#Lato-Regular-65" x="152.425018"/>
     <use xlink:href="#Lato-Regular-72" x="205.225021"/>
     <use xlink:href="#Lato-Regular-65" x="239.625031"/>
     <use xlink:href="#Lato-Regular-64" x="292.425034"/>
    </g>
   </g>
   <g id="text_4">
    <!-- 44% -->
    <g transform="translate(117.988373 200.36007) scale(0.1 -0.1)">
     <use xlink:href="#Lato-Regular-34"/>
     <use xlink:href="#Lato-Regular-34" x="58"/>
     <use xlink:href="#Lato-Regular-25" x="116"/>
    </g>
    <!-- (7) -->
    <g transform="translate(122.225873 211.08132) scale(0.1 -0.1)">
     <defs>
      <path id="Lato-Regular-37" d="M 3459 4586 
L 3459 4330 
Q 3459 4221 3435 4150 
Q 3411 4080 3389 4032 
L 1488 202 
Q 1446 118 1372 59 
Q 1299 0 1178 0 
L 768 0 
L 2694 3782 
Q 2736 3862 2779 3929 
Q 2822 3997 2877 4058 
L 483 4058 
Q 429 4058 387 4101 
Q 346 4144 346 4198 
L 346 4586 
L 3459 4586 
z
" transform="scale(0.015625)"/>
     </defs>
     <use xlink:href="#Lato-Regular-28"/>
     <use xlink:href="#Lato-Regular-37" x="26.699997"/>
     <use xlink:href="#Lato-Regular-29" x="84.699997"/>
    </g>
   </g>
   <g id="text_5">
    <!-- has report -->
    <g transform="translate(255.095444 165.923974) scale(0.1 -0.1)">
     <defs>
      <path id="Lato-Regular-68" d="M 451 0 
L 451 4714 
L 1024 4714 
L 1024 2806 
Q 1232 3027 1485 3160 
Q 1738 3293 2067 3293 
Q 2333 3293 2536 3205 
Q 2739 3117 2875 2955 
Q 3011 2794 3081 2566 
Q 3152 2339 3152 2064 
L 3152 0 
L 2579 0 
L 2579 2064 
Q 2579 2432 2411 2635 
Q 2243 2838 1901 2838 
Q 1645 2838 1425 2716 
Q 1206 2595 1024 2387 
L 1024 0 
L 451 0 
z
" transform="scale(0.015625)"/>
      <path id="Lato-Regular-61" d="M 2512 0 
Q 2429 0 2384 27 
Q 2339 54 2314 134 
L 2250 438 
Q 2122 323 1998 232 
Q 1875 141 1742 78 
Q 1610 16 1458 -17 
Q 1306 -51 1120 -51 
Q 931 -51 764 1 
Q 598 54 475 160 
Q 352 266 280 427 
Q 208 589 208 810 
Q 208 1002 313 1179 
Q 419 1357 656 1494 
Q 893 1632 1273 1720 
Q 1654 1808 2208 1821 
L 2208 2074 
Q 2208 2451 2045 2644 
Q 1882 2838 1568 2838 
Q 1357 2838 1214 2785 
Q 1072 2733 968 2667 
Q 864 2602 789 2549 
Q 714 2496 640 2496 
Q 582 2496 540 2526 
Q 499 2557 470 2602 
L 368 2784 
Q 637 3043 947 3171 
Q 1258 3299 1635 3299 
Q 1907 3299 2118 3209 
Q 2330 3120 2474 2960 
Q 2618 2800 2691 2573 
Q 2765 2346 2765 2074 
L 2765 0 
L 2512 0 
z
M 1290 349 
Q 1440 349 1565 379 
Q 1690 410 1800 466 
Q 1910 522 2011 603 
Q 2112 685 2208 787 
L 2208 1459 
Q 1814 1446 1537 1396 
Q 1261 1347 1086 1267 
Q 912 1187 833 1078 
Q 755 970 755 835 
Q 755 707 796 614 
Q 838 522 910 462 
Q 982 403 1080 376 
Q 1178 349 1290 349 
z
" transform="scale(0.015625)"/>
      <path id="Lato-Regular-73" d="M 2339 2707 
Q 2301 2637 2221 2637 
Q 2173 2637 2112 2672 
Q 2051 2707 1963 2750 
Q 1875 2794 1753 2830 
Q 1632 2867 1466 2867 
Q 1322 2867 1206 2830 
Q 1091 2794 1009 2730 
Q 928 2666 885 2581 
Q 842 2496 842 2397 
Q 842 2272 914 2189 
Q 986 2106 1104 2045 
Q 1222 1984 1372 1937 
Q 1523 1891 1681 1838 
Q 1840 1786 1990 1722 
Q 2141 1658 2259 1562 
Q 2378 1466 2450 1326 
Q 2522 1187 2522 992 
Q 2522 768 2442 577 
Q 2362 387 2205 248 
Q 2048 109 1821 29 
Q 1594 -51 1296 -51 
Q 957 -51 681 59 
Q 406 170 214 342 
L 349 560 
Q 374 602 409 624 
Q 445 646 499 646 
Q 557 646 621 601 
Q 685 557 776 502 
Q 867 448 998 403 
Q 1130 358 1325 358 
Q 1491 358 1616 401 
Q 1741 445 1824 518 
Q 1907 592 1947 688 
Q 1987 784 1987 893 
Q 1987 1027 1915 1115 
Q 1843 1203 1724 1265 
Q 1606 1328 1454 1374 
Q 1302 1421 1144 1472 
Q 986 1523 834 1588 
Q 682 1654 563 1753 
Q 445 1853 373 1998 
Q 301 2144 301 2352 
Q 301 2538 377 2709 
Q 454 2880 601 3009 
Q 749 3139 963 3216 
Q 1178 3293 1453 3293 
Q 1773 3293 2027 3192 
Q 2282 3091 2467 2915 
L 2339 2707 
z
" transform="scale(0.015625)"/>
      <path id="Lato-Regular-20" transform="scale(0.015625)"/>
      <path id="Lato-Regular-70" d="M 451 -1098 
L 451 3242 
L 794 3242 
Q 915 3242 944 3123 
L 992 2739 
Q 1200 2992 1469 3145 
Q 1738 3299 2083 3299 
Q 2365 3299 2592 3192 
Q 2819 3085 2979 2875 
Q 3139 2666 3225 2355 
Q 3312 2045 3312 1642 
Q 3312 1283 3216 974 
Q 3120 666 2939 440 
Q 2758 214 2497 84 
Q 2237 -45 1910 -45 
Q 1613 -45 1400 54 
Q 1187 154 1024 336 
L 1024 -1098 
L 451 -1098 
z
M 1898 2838 
Q 1619 2838 1409 2710 
Q 1200 2582 1024 2349 
L 1024 781 
Q 1178 570 1365 483 
Q 1552 397 1782 397 
Q 2237 397 2480 720 
Q 2723 1043 2723 1642 
Q 2723 1958 2667 2185 
Q 2611 2413 2505 2558 
Q 2400 2704 2246 2771 
Q 2093 2838 1898 2838 
z
" transform="scale(0.015625)"/>
      <path id="Lato-Regular-74" d="M 1446 -51 
Q 1062 -51 856 163 
Q 650 378 650 781 
L 650 2765 
L 259 2765 
Q 208 2765 173 2795 
Q 138 2826 138 2890 
L 138 3117 
L 669 3184 
L 800 4186 
Q 810 4234 843 4264 
Q 877 4294 931 4294 
L 1219 4294 
L 1219 3178 
L 2157 3178 
L 2157 2765 
L 1219 2765 
L 1219 819 
Q 1219 614 1318 515 
Q 1418 416 1574 416 
Q 1664 416 1729 440 
Q 1795 464 1843 493 
Q 1891 522 1924 546 
Q 1958 570 1984 570 
Q 2029 570 2064 515 
L 2230 243 
Q 2083 106 1875 27 
Q 1667 -51 1446 -51 
z
" transform="scale(0.015625)"/>
     </defs>
     <use xlink:href="#Lato-Regular-68"/>
     <use xlink:href="#Lato-Regular-61" x="55.800003"/>
     <use xlink:href="#Lato-Regular-73" x="105.500015"/>
     <use xlink:href="#Lato-Regular-20" x="148.800018"/>
     <use xlink:href="#Lato-Regular-72" x="174.400024"/>
     <use xlink:href="#Lato-Regular-65" x="208.800034"/>
     <use xlink:href="#Lato-Regular-70" x="261.600037"/>
     <use xlink:href="#Lato-Regular-6f" x="317.65004"/>
     <use xlink:href="#Lato-Regular-72" x="374.350052"/>
     <use xlink:href="#Lato-Regular-74" x="410.750061"/>
    </g>
   </g>
   <g id="text_6">
    <!-- 6% -->
    <g transform="translate(195.987884 150.180179) scale(0.1 -0.1)">
     <defs>
      <path id="Lato-Regular-36" d="M 1517 2867 
Q 1453 2790 1398 2716 
Q 1344 2643 1290 2573 
Q 1453 2685 1649 2747 
Q 1846 2810 2077 2810 
Q 2355 2810 2601 2718 
Q 2848 2627 3032 2452 
Q 3216 2278 3325 2024 
Q 3434 1770 3434 1443 
Q 3434 1126 3318 854 
Q 3203 582 2996 380 
Q 2790 179 2500 64 
Q 2211 -51 1862 -51 
Q 1517 -51 1235 59 
Q 954 170 757 373 
Q 560 576 453 865 
Q 346 1155 346 1514 
Q 346 1814 478 2155 
Q 611 2496 902 2883 
L 2067 4448 
Q 2112 4506 2190 4546 
Q 2269 4586 2371 4586 
L 2877 4586 
L 1517 2867 
z
M 893 1414 
Q 893 1194 957 1011 
Q 1021 829 1144 697 
Q 1267 566 1444 494 
Q 1622 422 1850 422 
Q 2080 422 2267 496 
Q 2454 570 2587 701 
Q 2720 832 2792 1011 
Q 2864 1190 2864 1402 
Q 2864 1626 2793 1806 
Q 2723 1987 2593 2113 
Q 2464 2240 2285 2307 
Q 2106 2374 1891 2374 
Q 1661 2374 1475 2296 
Q 1290 2218 1160 2085 
Q 1030 1952 961 1777 
Q 893 1603 893 1414 
z
" transform="scale(0.015625)"/>
     </defs>
     <use xlink:href="#Lato-Regular-36"/>
     <use xlink:href="#Lato-Regular-25" x="58"/>
    </g>
    <!-- (1) -->
    <g transform="translate(197.325384 160.901429) scale(0.1 -0.1)">
     <defs>
      <path id="Lato-Regular-31" d="M 800 435 
L 1782 435 
L 1782 3562 
Q 1782 3696 1792 3846 
L 976 3146 
Q 934 3110 892 3102 
Q 851 3094 816 3100 
Q 781 3107 750 3126 
Q 720 3146 704 3168 
L 525 3414 
L 1891 4595 
L 2355 4595 
L 2355 435 
L 3258 435 
L 3258 0 
L 800 0 
L 800 435 
z
" transform="scale(0.015625)"/>
     </defs>
     <use xlink:href="#Lato-Regular-28"/>
     <use xlink:href="#Lato-Regular-31" x="26.699997"/>
     <use xlink:href="#Lato-Regular-29" x="84.699997"/>
    </g>
   </g>
   <g id="text_7">
    <!-- ERROR -->
    <g transform="translate(248.432374 98.272836) scale(0.1 -0.1)">
     <defs>
      <path id="Lato-Regular-45" d="M 3411 4586 
L 3411 4080 
L 1206 4080 
L 1206 2557 
L 2992 2557 
L 2992 2070 
L 1206 2070 
L 1206 506 
L 3414 506 
L 3411 0 
L 586 0 
L 586 4586 
L 3411 4586 
z
" transform="scale(0.015625)"/>
      <path id="Lato-Regular-52" d="M 1203 1914 
L 1203 0 
L 586 0 
L 586 4586 
L 1882 4586 
Q 2317 4586 2633 4498 
Q 2950 4410 3156 4243 
Q 3363 4077 3462 3841 
Q 3562 3606 3562 3315 
Q 3562 3072 3485 2861 
Q 3408 2650 3262 2482 
Q 3117 2314 2907 2194 
Q 2698 2074 2432 2016 
Q 2554 1939 2637 1821 
L 3974 0 
L 3424 0 
Q 3254 0 3174 131 
L 1984 1770 
Q 1930 1846 1867 1880 
Q 1805 1914 1674 1914 
L 1203 1914 
z
M 1203 2365 
L 1856 2365 
Q 2125 2365 2331 2430 
Q 2538 2496 2677 2616 
Q 2816 2736 2886 2902 
Q 2957 3069 2957 3270 
Q 2957 3680 2688 3888 
Q 2419 4096 1882 4096 
L 1203 4096 
L 1203 2365 
z
" transform="scale(0.015625)"/>
      <path id="Lato-Regular-4f" d="M 4822 2291 
Q 4822 1776 4659 1345 
Q 4496 915 4198 604 
Q 3901 294 3483 123 
Q 3066 -48 2560 -48 
Q 2054 -48 1638 123 
Q 1222 294 924 604 
Q 627 915 464 1345 
Q 301 1776 301 2291 
Q 301 2806 464 3236 
Q 627 3667 924 3979 
Q 1222 4291 1638 4464 
Q 2054 4637 2560 4637 
Q 3066 4637 3483 4464 
Q 3901 4291 4198 3979 
Q 4496 3667 4659 3236 
Q 4822 2806 4822 2291 
z
M 4186 2291 
Q 4186 2714 4070 3050 
Q 3955 3386 3744 3618 
Q 3533 3850 3232 3974 
Q 2931 4099 2560 4099 
Q 2192 4099 1891 3974 
Q 1590 3850 1377 3618 
Q 1165 3386 1049 3050 
Q 934 2714 934 2291 
Q 934 1869 1049 1534 
Q 1165 1200 1377 968 
Q 1590 736 1891 613 
Q 2192 490 2560 490 
Q 2931 490 3232 613 
Q 3533 736 3744 968 
Q 3955 1200 4070 1534 
Q 4186 1869 4186 2291 
z
" transform="scale(0.015625)"/>
     </defs>
     <use xlink:href="#Lato-Regular-45"/>
     <use xlink:href="#Lato-Regular-52" x="57.75"/>
     <use xlink:href="#Lato-Regular-52" x="120.400009"/>
     <use xlink:href="#Lato-Regular-4f" x="182.300018"/>
     <use xlink:href="#Lato-Regular-52" x="262.350037"/>
    </g>
   </g>
   <g id="text_8">
    <!-- 12% -->
    <g transform="translate(189.453483 113.279558) scale(0.1 -0.1)">
     <use xlink:href="#Lato-Regular-31"/>
     <use xlink:href="#Lato-Regular-32" x="58"/>
     <use xlink:href="#Lato-Regular-25" x="116"/>
    </g>
    <!-- (2) -->
    <g transform="translate(193.690983 124.000808) scale(0.1 -0.1)">
     <use xlink:href="#Lato-Regular-28"/>
     <use xlink:href="#Lato-Regular-32" x="26.699997"/>
     <use xlink:href="#Lato-Regular-29" x="84.699997"/>
    </g>
   </g>
   <g id="text_9">
    <!-- pass -->
    <g transform="translate(205.307309 45.724815) scale(0.1 -0.1)">
     <use xlink:href="#Lato-Regular-70"/>
     <use xlink:href="#Lato-Regular-61" x="56.050003"/>
     <use xlink:href="#Lato-Regular-73" x="105.750015"/>
     <use xlink:href="#Lato-Regular-73" x="149.050018"/>
    </g>
   </g>
   <g id="text_10">
    <!-- 6% -->
    <g transform="translate(168.83072 84.617002) scale(0.1 -0.1)">
     <use xlink:href="#Lato-Regular-36"/>
     <use xlink:href="#Lato-Regular-25" x="58"/>
    </g>
    <!-- (1) -->
    <g transform="translate(170.16822 95.338252) scale(0.1 -0.1)">
     <use xlink:href="#Lato-Regular-28"/>
     <use xlink:href="#Lato-Regular-31" x="26.699997"/>
     <use xlink:href="#Lato-Regular-29" x="84.699997"/>
    </g>
   </g>
   <g id="text_11">
    <!-- skip -->
    <g transform="translate(163.098956 28.241552) scale(0.1 -0.1)">
     <defs>
      <path id="Lato-Regular-6b" d="M 1024 4714 
L 1024 1939 
L 1171 1939 
Q 1235 1939 1278 1956 
Q 1322 1974 1370 2029 
L 2394 3126 
Q 2438 3181 2488 3211 
Q 2538 3242 2621 3242 
L 3136 3242 
L 1942 1971 
Q 1856 1862 1757 1802 
Q 1814 1763 1860 1713 
Q 1907 1664 1949 1600 
L 3216 0 
L 2707 0 
Q 2634 0 2581 24 
Q 2528 48 2490 112 
L 1424 1440 
Q 1376 1507 1329 1528 
Q 1283 1549 1187 1549 
L 1024 1549 
L 1024 0 
L 451 0 
L 451 4714 
L 1024 4714 
z
" transform="scale(0.015625)"/>
      <path id="Lato-Regular-69" d="M 1053 3242 
L 1053 0 
L 483 0 
L 483 3242 
L 1053 3242 
z
M 1174 4259 
Q 1174 4176 1140 4104 
Q 1107 4032 1051 3976 
Q 995 3920 920 3888 
Q 845 3856 762 3856 
Q 678 3856 606 3888 
Q 534 3920 480 3976 
Q 426 4032 394 4104 
Q 362 4176 362 4259 
Q 362 4342 394 4417 
Q 426 4493 480 4549 
Q 534 4605 606 4637 
Q 678 4669 762 4669 
Q 845 4669 920 4637 
Q 995 4605 1051 4549 
Q 1107 4493 1140 4417 
Q 1174 4342 1174 4259 
z
" transform="scale(0.015625)"/>
     </defs>
     <use xlink:href="#Lato-Regular-73"/>
     <use xlink:href="#Lato-Regular-6b" x="43.300003"/>
     <use xlink:href="#Lato-Regular-69" x="94.100006"/>
     <use xlink:href="#Lato-Regular-70" x="118.100006"/>
    </g>
   </g>
   <g id="text_12">
    <!-- 6% -->
    <g transform="translate(145.807982 75.080676) scale(0.1 -0.1)">
     <use xlink:href="#Lato-Regular-36"/>
     <use xlink:href="#Lato-Regular-25" x="58"/>
    </g>
    <!-- (1) -->
    <g transform="translate(147.145482 85.801926) scale(0.1 -0.1)">
     <use xlink:href="#Lato-Regular-28"/>
     <use xlink:href="#Lato-Regular-31" x="26.699997"/>
     <use xlink:href="#Lato-Regular-29" x="84.699997"/>
    </g>
   </g>
  </g>
 </g>
</svg>
