<?xml version="1.0" encoding="utf-8" standalone="no"?>
<!DOCTYPE svg PUBLIC "-//W3C//DTD SVG 1.1//EN"
  "http://www.w3.org/Graphics/SVG/1.1/DTD/svg11.dtd">
<svg xmlns:xlink="http://www.w3.org/1999/xlink" width="280.512pt" height="280.512pt" viewBox="0 0 280.512 280.512" xmlns="http://www.w3.org/2000/svg" version="1.1">
 <metadata>
  <rdf:RDF xmlns:dc="http://purl.org/dc/elements/1.1/" xmlns:cc="http://creativecommons.org/ns#" xmlns:rdf="http://www.w3.org/1999/02/22-rdf-syntax-ns#">
   <cc:Work>
    <dc:type rdf:resource="http://purl.org/dc/dcmitype/StillImage"/>
    <dc:date>2024-08-02T11:27:37.527814</dc:date>
    <dc:format>image/svg+xml</dc:format>
    <dc:creator>
     <cc:Agent>
      <dc:title>Matplotlib v3.9.1, https://matplotlib.org/</dc:title>
     </cc:Agent>
    </dc:creator>
   </cc:Work>
  </rdf:RDF>
 </metadata>
 <defs>
  <style type="text/css">*{stroke-linejoin: round; stroke-linecap: butt}</style>
 </defs>
 <g id="figure_1">
  <g id="patch_1">
   <path d="M 0 280.512 
L 280.512 280.512 
L 280.512 0 
L 0 0 
L 0 280.512 
z
" style="fill: none"/>
  </g>
  <g id="axes_1">
   <g id="patch_2">
    <path d="M 139.217682 28.591225 
C 132.245296 28.591225 125.289746 29.276287 118.451332 30.636532 
C 111.612918 31.996778 104.924666 34.025636 98.483021 36.693853 
L 139.217682 135.036025 
z
" style="fill: #1f77b4"/>
   </g>
   <g id="patch_3">
    <path d="M 99.521342 41.913825 
C 87.418965 46.926792 76.345289 54.131008 66.857999 63.163656 
C 57.370709 72.196305 49.631801 82.903161 44.031038 94.744988 
C 38.430275 106.586811 35.06327 119.361423 34.099613 132.425447 
C 33.135956 145.489471 34.592088 158.619836 38.394676 171.155293 
C 42.197263 183.69075 48.281371 195.417229 56.340605 205.744189 
C 64.399839 216.07115 74.296597 224.822244 85.532429 231.556743 
C 96.76826 238.291242 109.151335 242.894164 122.057996 245.133683 
C 134.964658 247.373201 148.174547 247.211084 161.02236 244.65549 
C 173.870171 242.099902 186.136557 237.19447 197.20373 230.186258 
C 208.270902 223.178046 217.949876 214.186745 225.753251 203.665113 
C 233.556626 193.143484 239.35114 181.2712 242.844949 168.646199 
C 246.338758 156.021197 247.472215 142.859027 246.188238 129.822588 
C 244.904262 116.78615 241.224772 104.09801 235.335082 92.397205 
C 229.445392 80.6964 221.446076 70.182724 211.73998 61.385625 
C 202.033883 52.588526 190.786733 45.658233 178.564979 40.943779 
C 166.343224 36.229325 153.355532 33.8112 140.256015 33.8112 
L 140.256 140.256 
z
" style="fill: #ff7f0e"/>
   </g>
   <g id="matplotlib.axis_1"/>
   <g id="matplotlib.axis_2"/>
   <g id="text_1">
    <!-- Uncovered -->
    <g transform="translate(68.748134 23.021583) scale(0.1 -0.1)">
     <defs>
      <path id="Lato-Regular-55" d="M 2355 493 
Q 2640 493 2864 589 
Q 3088 685 3243 857 
Q 3398 1030 3480 1270 
Q 3562 1510 3562 1798 
L 3562 4586 
L 4179 4586 
L 4179 1798 
Q 4179 1402 4052 1062 
Q 3926 723 3691 475 
Q 3456 227 3117 86 
Q 2778 -54 2355 -54 
Q 1933 -54 1593 86 
Q 1254 227 1017 475 
Q 781 723 654 1062 
Q 528 1402 528 1798 
L 528 4586 
L 1146 4586 
L 1146 1802 
Q 1146 1514 1227 1274 
Q 1309 1034 1464 861 
Q 1619 688 1844 590 
Q 2070 493 2355 493 
z
" transform="scale(0.015625)"/>
      <path id="Lato-Regular-6e" d="M 451 0 
L 451 3242 
L 794 3242 
Q 915 3242 944 3123 
L 989 2771 
Q 1200 3005 1462 3149 
Q 1725 3293 2067 3293 
Q 2333 3293 2536 3205 
Q 2739 3117 2875 2955 
Q 3011 2794 3081 2566 
Q 3152 2339 3152 2064 
L 3152 0 
L 2579 0 
L 2579 2064 
Q 2579 2432 2411 2635 
Q 2243 2838 1901 2838 
Q 1645 2838 1425 2716 
Q 1206 2595 1024 2387 
L 1024 0 
L 451 0 
z
" transform="scale(0.015625)"/>
      <path id="Lato-Regular-63" d="M 2707 2666 
Q 2682 2630 2656 2611 
Q 2630 2592 2586 2592 
Q 2538 2592 2480 2632 
Q 2422 2672 2337 2720 
Q 2253 2768 2129 2808 
Q 2006 2848 1827 2848 
Q 1587 2848 1404 2763 
Q 1222 2678 1099 2518 
Q 976 2358 913 2131 
Q 851 1904 851 1622 
Q 851 1328 918 1099 
Q 986 870 1109 715 
Q 1232 560 1406 478 
Q 1581 397 1798 397 
Q 2006 397 2140 446 
Q 2275 496 2363 557 
Q 2451 618 2510 667 
Q 2570 717 2627 717 
Q 2698 717 2736 662 
L 2896 454 
Q 2790 323 2656 230 
Q 2522 138 2366 75 
Q 2211 13 2041 -16 
Q 1872 -45 1696 -45 
Q 1392 -45 1131 67 
Q 870 179 678 392 
Q 486 605 377 915 
Q 269 1226 269 1622 
Q 269 1984 369 2291 
Q 470 2598 664 2820 
Q 858 3043 1141 3168 
Q 1424 3293 1792 3293 
Q 2134 3293 2395 3182 
Q 2656 3072 2858 2870 
L 2707 2666 
z
" transform="scale(0.015625)"/>
      <path id="Lato-Regular-6f" d="M 1818 3293 
Q 2173 3293 2457 3174 
Q 2742 3056 2944 2838 
Q 3146 2621 3253 2312 
Q 3360 2003 3360 1622 
Q 3360 1238 3253 931 
Q 3146 624 2944 406 
Q 2742 189 2457 72 
Q 2173 -45 1818 -45 
Q 1459 -45 1172 72 
Q 886 189 684 406 
Q 483 624 376 931 
Q 269 1238 269 1622 
Q 269 2003 376 2312 
Q 483 2621 684 2838 
Q 886 3056 1172 3174 
Q 1459 3293 1818 3293 
z
M 1818 400 
Q 2298 400 2534 721 
Q 2771 1043 2771 1619 
Q 2771 2198 2534 2521 
Q 2298 2845 1818 2845 
Q 1574 2845 1393 2761 
Q 1213 2678 1093 2521 
Q 973 2365 913 2136 
Q 854 1907 854 1619 
Q 854 1043 1092 721 
Q 1331 400 1818 400 
z
" transform="scale(0.015625)"/>
      <path id="Lato-Regular-76" d="M 74 3242 
L 538 3242 
Q 608 3242 653 3206 
Q 698 3171 714 3123 
L 1536 1037 
Q 1574 918 1603 806 
Q 1632 694 1658 582 
Q 1683 694 1712 806 
Q 1741 918 1782 1037 
L 2614 3123 
Q 2634 3174 2678 3208 
Q 2723 3242 2784 3242 
L 3229 3242 
L 1907 0 
L 1395 0 
L 74 3242 
z
" transform="scale(0.015625)"/>
      <path id="Lato-Regular-65" d="M 1779 3293 
Q 2070 3293 2318 3195 
Q 2566 3098 2747 2914 
Q 2928 2730 3030 2459 
Q 3133 2189 3133 1843 
Q 3133 1709 3104 1664 
Q 3075 1619 2995 1619 
L 829 1619 
Q 835 1312 912 1085 
Q 989 858 1123 706 
Q 1258 554 1443 478 
Q 1629 403 1859 403 
Q 2074 403 2229 452 
Q 2384 502 2496 560 
Q 2608 618 2683 667 
Q 2758 717 2813 717 
Q 2883 717 2922 662 
L 3082 454 
Q 2976 326 2829 232 
Q 2682 138 2514 77 
Q 2346 16 2166 -14 
Q 1987 -45 1811 -45 
Q 1475 -45 1192 68 
Q 909 182 702 401 
Q 496 621 381 944 
Q 266 1267 266 1686 
Q 266 2026 370 2320 
Q 474 2614 669 2830 
Q 864 3046 1145 3169 
Q 1427 3293 1779 3293 
z
M 1792 2874 
Q 1379 2874 1142 2635 
Q 906 2397 848 1974 
L 2621 1974 
Q 2621 2173 2565 2337 
Q 2509 2502 2401 2622 
Q 2294 2742 2140 2808 
Q 1987 2874 1792 2874 
z
" transform="scale(0.015625)"/>
      <path id="Lato-Regular-72" d="M 451 0 
L 451 3242 
L 778 3242 
Q 870 3242 905 3206 
Q 941 3171 954 3085 
L 989 2592 
Q 1142 2925 1368 3112 
Q 1594 3299 1917 3299 
Q 2019 3299 2113 3276 
Q 2208 3254 2282 3206 
L 2240 2781 
Q 2221 2701 2144 2701 
Q 2099 2701 2012 2720 
Q 1926 2739 1818 2739 
Q 1664 2739 1542 2692 
Q 1421 2646 1326 2558 
Q 1232 2470 1158 2342 
Q 1085 2214 1024 2048 
L 1024 0 
L 451 0 
z
" transform="scale(0.015625)"/>
      <path id="Lato-Regular-64" d="M 2794 0 
Q 2672 0 2640 118 
L 2589 512 
Q 2381 259 2113 107 
Q 1846 -45 1501 -45 
Q 1222 -45 995 62 
Q 768 170 608 378 
Q 448 586 361 896 
Q 275 1206 275 1610 
Q 275 1968 371 2277 
Q 467 2586 646 2813 
Q 826 3040 1086 3169 
Q 1347 3299 1674 3299 
Q 1971 3299 2184 3198 
Q 2397 3098 2563 2915 
L 2563 4714 
L 3133 4714 
L 3133 0 
L 2794 0 
z
M 1686 416 
Q 1968 416 2177 544 
Q 2387 672 2563 906 
L 2563 2470 
Q 2403 2682 2217 2768 
Q 2032 2854 1802 2854 
Q 1350 2854 1107 2531 
Q 864 2208 864 1610 
Q 864 1293 918 1067 
Q 973 842 1078 696 
Q 1184 550 1337 483 
Q 1491 416 1686 416 
z
" transform="scale(0.015625)"/>
     </defs>
     <use xlink:href="#Lato-Regular-55"/>
     <use xlink:href="#Lato-Regular-6e" x="72.050018"/>
     <use xlink:href="#Lato-Regular-63" x="127.850021"/>
     <use xlink:href="#Lato-Regular-6f" x="174.725021"/>
     <use xlink:href="#Lato-Regular-76" x="230.050034"/>
     <use xlink:href="#Lato-Regular-65" x="280.27504"/>
     <use xlink:href="#Lato-Regular-72" x="333.075043"/>
     <use xlink:href="#Lato-Regular-65" x="367.475052"/>
     <use xlink:href="#Lato-Regular-64" x="420.275055"/>
    </g>
   </g>
   <g id="text_2">
    <!-- 6% -->
    <g transform="translate(119.850059 69.860705) scale(0.1 -0.1)">
     <defs>
      <path id="Lato-Regular-36" d="M 1517 2867 
Q 1453 2790 1398 2716 
Q 1344 2643 1290 2573 
Q 1453 2685 1649 2747 
Q 1846 2810 2077 2810 
Q 2355 2810 2601 2718 
Q 2848 2627 3032 2452 
Q 3216 2278 3325 2024 
Q 3434 1770 3434 1443 
Q 3434 1126 3318 854 
Q 3203 582 2996 380 
Q 2790 179 2500 64 
Q 2211 -51 1862 -51 
Q 1517 -51 1235 59 
Q 954 170 757 373 
Q 560 576 453 865 
Q 346 1155 346 1514 
Q 346 1814 478 2155 
Q 611 2496 902 2883 
L 2067 4448 
Q 2112 4506 2190 4546 
Q 2269 4586 2371 4586 
L 2877 4586 
L 1517 2867 
z
M 893 1414 
Q 893 1194 957 1011 
Q 1021 829 1144 697 
Q 1267 566 1444 494 
Q 1622 422 1850 422 
Q 2080 422 2267 496 
Q 2454 570 2587 701 
Q 2720 832 2792 1011 
Q 2864 1190 2864 1402 
Q 2864 1626 2793 1806 
Q 2723 1987 2593 2113 
Q 2464 2240 2285 2307 
Q 2106 2374 1891 2374 
Q 1661 2374 1475 2296 
Q 1290 2218 1160 2085 
Q 1030 1952 961 1777 
Q 893 1603 893 1414 
z
" transform="scale(0.015625)"/>
      <path id="Lato-Regular-25" d="M 2310 3478 
Q 2310 3210 2227 2997 
Q 2144 2784 2005 2638 
Q 1866 2493 1682 2416 
Q 1498 2339 1293 2339 
Q 1078 2339 892 2416 
Q 707 2493 571 2638 
Q 435 2784 358 2997 
Q 282 3210 282 3478 
Q 282 3754 358 3968 
Q 435 4182 571 4329 
Q 707 4477 892 4553 
Q 1078 4630 1293 4630 
Q 1510 4630 1696 4553 
Q 1882 4477 2019 4329 
Q 2157 4182 2233 3968 
Q 2310 3754 2310 3478 
z
M 1869 3478 
Q 1869 3690 1824 3837 
Q 1779 3984 1700 4078 
Q 1622 4173 1516 4214 
Q 1411 4256 1293 4256 
Q 1174 4256 1072 4214 
Q 970 4173 893 4078 
Q 816 3984 771 3837 
Q 726 3690 726 3478 
Q 726 3270 771 3124 
Q 816 2979 893 2888 
Q 970 2797 1072 2757 
Q 1174 2717 1293 2717 
Q 1411 2717 1516 2757 
Q 1622 2797 1700 2888 
Q 1779 2979 1824 3124 
Q 1869 3270 1869 3478 
z
M 3933 4490 
Q 3965 4528 4008 4557 
Q 4051 4586 4125 4586 
L 4538 4586 
L 1184 93 
Q 1155 51 1110 25 
Q 1066 0 1002 0 
L 582 0 
L 3933 4490 
z
M 4848 1082 
Q 4848 813 4765 601 
Q 4682 390 4542 244 
Q 4403 99 4219 22 
Q 4035 -54 3830 -54 
Q 3613 -54 3429 22 
Q 3245 99 3109 244 
Q 2973 390 2896 601 
Q 2819 813 2819 1082 
Q 2819 1357 2896 1573 
Q 2973 1789 3109 1936 
Q 3245 2083 3429 2160 
Q 3613 2237 3830 2237 
Q 4045 2237 4232 2160 
Q 4419 2083 4555 1936 
Q 4691 1789 4769 1573 
Q 4848 1357 4848 1082 
z
M 4406 1082 
Q 4406 1293 4361 1441 
Q 4317 1590 4238 1683 
Q 4160 1776 4054 1817 
Q 3949 1859 3830 1859 
Q 3712 1859 3608 1817 
Q 3504 1776 3427 1683 
Q 3350 1590 3307 1441 
Q 3264 1293 3264 1082 
Q 3264 874 3307 730 
Q 3350 586 3427 494 
Q 3504 403 3608 363 
Q 3712 323 3830 323 
Q 3949 323 4054 363 
Q 4160 403 4238 494 
Q 4317 586 4361 730 
Q 4406 874 4406 1082 
z
" transform="scale(0.015625)"/>
     </defs>
     <use xlink:href="#Lato-Regular-36"/>
     <use xlink:href="#Lato-Regular-25" x="58"/>
    </g>
    <!-- (1) -->
    <g transform="translate(121.187559 80.581955) scale(0.1 -0.1)">
     <defs>
      <path id="Lato-Regular-28" d="M 784 2013 
Q 784 1328 958 681 
Q 1133 35 1469 -547 
Q 1520 -646 1494 -699 
Q 1469 -752 1421 -784 
L 1168 -938 
Q 928 -570 760 -208 
Q 592 154 488 518 
Q 384 883 336 1252 
Q 288 1622 288 2013 
Q 288 2400 336 2771 
Q 384 3142 488 3505 
Q 592 3869 760 4230 
Q 928 4592 1168 4963 
L 1421 4806 
Q 1469 4774 1494 4721 
Q 1520 4669 1469 4573 
Q 1133 3990 958 3344 
Q 784 2698 784 2013 
z
" transform="scale(0.015625)"/>
      <path id="Lato-Regular-31" d="M 800 435 
L 1782 435 
L 1782 3562 
Q 1782 3696 1792 3846 
L 976 3146 
Q 934 3110 892 3102 
Q 851 3094 816 3100 
Q 781 3107 750 3126 
Q 720 3146 704 3168 
L 525 3414 
L 1891 4595 
L 2355 4595 
L 2355 435 
L 3258 435 
L 3258 0 
L 800 0 
L 800 435 
z
" transform="scale(0.015625)"/>
      <path id="Lato-Regular-29" d="M 925 2013 
Q 925 2698 750 3344 
Q 576 3990 240 4573 
Q 214 4621 208 4657 
Q 202 4694 211 4721 
Q 221 4749 241 4769 
Q 262 4790 288 4806 
L 541 4963 
Q 781 4592 949 4230 
Q 1117 3869 1221 3505 
Q 1325 3142 1373 2771 
Q 1421 2400 1421 2013 
Q 1421 1622 1373 1252 
Q 1325 883 1221 518 
Q 1117 154 949 -208 
Q 781 -570 541 -938 
L 288 -784 
Q 262 -768 241 -747 
Q 221 -726 211 -699 
Q 202 -672 208 -633 
Q 214 -595 240 -547 
Q 576 35 750 681 
Q 925 1328 925 2013 
z
" transform="scale(0.015625)"/>
     </defs>
     <use xlink:href="#Lato-Regular-28"/>
     <use xlink:href="#Lato-Regular-31" x="26.699997"/>
     <use xlink:href="#Lato-Regular-29" x="84.699997"/>
    </g>
   </g>
   <g id="text_3">
    <!-- Covered -->
    <g transform="translate(163.098996 257.92044) scale(0.1 -0.1)">
     <defs>
      <path id="Lato-Regular-43" d="M 3805 947 
Q 3856 947 3894 906 
L 4141 640 
Q 3859 314 3457 131 
Q 3056 -51 2486 -51 
Q 1994 -51 1590 120 
Q 1187 291 902 600 
Q 618 909 461 1341 
Q 304 1773 304 2291 
Q 304 2810 467 3242 
Q 630 3674 926 3984 
Q 1222 4294 1635 4465 
Q 2048 4637 2547 4637 
Q 3037 4637 3411 4480 
Q 3786 4323 4070 4054 
L 3866 3770 
Q 3846 3738 3816 3717 
Q 3786 3696 3734 3696 
Q 3677 3696 3593 3758 
Q 3510 3821 3376 3897 
Q 3242 3974 3040 4036 
Q 2838 4099 2544 4099 
Q 2189 4099 1894 3976 
Q 1600 3853 1387 3619 
Q 1174 3386 1056 3050 
Q 938 2714 938 2291 
Q 938 1862 1061 1526 
Q 1184 1190 1397 958 
Q 1610 726 1899 604 
Q 2189 483 2525 483 
Q 2730 483 2894 507 
Q 3059 531 3198 582 
Q 3338 634 3458 712 
Q 3578 790 3696 899 
Q 3750 947 3805 947 
z
" transform="scale(0.015625)"/>
     </defs>
     <use xlink:href="#Lato-Regular-43"/>
     <use xlink:href="#Lato-Regular-6f" x="65.800003"/>
     <use xlink:href="#Lato-Regular-76" x="121.125015"/>
     <use xlink:href="#Lato-Regular-65" x="171.350021"/>
     <use xlink:href="#Lato-Regular-72" x="224.150024"/>
     <use xlink:href="#Lato-Regular-65" x="258.550034"/>
     <use xlink:href="#Lato-Regular-64" x="311.350037"/>
    </g>
   </g>
   <g id="text_4">
    <!-- 94% -->
    <g transform="translate(142.908003 200.36007) scale(0.1 -0.1)">
     <defs>
      <path id="Lato-Regular-39" d="M 2237 1827 
Q 2307 1920 2368 2003 
Q 2429 2086 2483 2170 
Q 2307 2029 2086 1955 
Q 1866 1882 1619 1882 
Q 1360 1882 1128 1968 
Q 896 2054 720 2222 
Q 544 2390 440 2635 
Q 336 2880 336 3197 
Q 336 3498 448 3760 
Q 560 4022 761 4217 
Q 963 4413 1241 4525 
Q 1520 4637 1853 4637 
Q 2182 4637 2451 4528 
Q 2720 4419 2912 4224 
Q 3104 4029 3208 3757 
Q 3312 3485 3312 3155 
Q 3312 2957 3275 2779 
Q 3238 2602 3169 2430 
Q 3101 2259 3001 2091 
Q 2902 1923 2778 1747 
L 1661 134 
Q 1619 74 1542 37 
Q 1466 0 1366 0 
L 842 0 
L 2237 1827 
z
M 2765 3222 
Q 2765 3437 2696 3611 
Q 2627 3786 2505 3907 
Q 2384 4029 2216 4094 
Q 2048 4160 1846 4160 
Q 1635 4160 1462 4091 
Q 1290 4022 1165 3900 
Q 1040 3779 973 3609 
Q 906 3440 906 3238 
Q 906 3021 968 2849 
Q 1030 2678 1147 2560 
Q 1264 2442 1432 2381 
Q 1600 2320 1808 2320 
Q 2038 2320 2216 2395 
Q 2394 2470 2515 2595 
Q 2637 2720 2701 2883 
Q 2765 3046 2765 3222 
z
" transform="scale(0.015625)"/>
      <path id="Lato-Regular-34" d="M 2835 1654 
L 3530 1654 
L 3530 1328 
Q 3530 1277 3499 1241 
Q 3469 1206 3405 1206 
L 2835 1206 
L 2835 0 
L 2336 0 
L 2336 1206 
L 301 1206 
Q 237 1206 190 1243 
Q 144 1280 131 1334 
L 74 1626 
L 2304 4586 
L 2835 4586 
L 2835 1654 
z
M 2336 3546 
Q 2336 3629 2341 3726 
Q 2346 3824 2362 3926 
L 691 1654 
L 2336 1654 
L 2336 3546 
z
" transform="scale(0.015625)"/>
     </defs>
     <use xlink:href="#Lato-Regular-39"/>
     <use xlink:href="#Lato-Regular-34" x="58"/>
     <use xlink:href="#Lato-Regular-25" x="116"/>
    </g>
    <!-- (15) -->
    <g transform="translate(144.245503 211.08132) scale(0.1 -0.1)">
     <defs>
      <path id="Lato-Regular-35" d="M 3142 4336 
Q 3142 4214 3067 4136 
Q 2992 4058 2810 4058 
L 1370 4058 
L 1158 2854 
Q 1341 2896 1502 2913 
Q 1664 2931 1818 2931 
Q 2176 2931 2451 2825 
Q 2726 2720 2910 2534 
Q 3094 2349 3188 2096 
Q 3283 1843 3283 1546 
Q 3283 1181 3156 886 
Q 3030 592 2808 382 
Q 2586 173 2285 61 
Q 1984 -51 1635 -51 
Q 1434 -51 1248 -11 
Q 1062 29 900 96 
Q 739 163 601 249 
Q 464 336 358 432 
L 534 675 
Q 592 758 685 758 
Q 749 758 829 708 
Q 909 659 1024 598 
Q 1139 538 1294 488 
Q 1450 438 1664 438 
Q 1904 438 2096 515 
Q 2288 592 2425 734 
Q 2563 877 2636 1075 
Q 2710 1274 2710 1520 
Q 2710 1734 2648 1907 
Q 2586 2080 2459 2201 
Q 2333 2323 2144 2390 
Q 1955 2458 1702 2458 
Q 1530 2458 1342 2429 
Q 1155 2400 960 2336 
L 602 2442 
L 970 4586 
L 3142 4586 
L 3142 4336 
z
" transform="scale(0.015625)"/>
     </defs>
     <use xlink:href="#Lato-Regular-28"/>
     <use xlink:href="#Lato-Regular-31" x="26.699997"/>
     <use xlink:href="#Lato-Regular-35" x="84.699997"/>
     <use xlink:href="#Lato-Regular-29" x="142.699997"/>
    </g>
   </g>
  </g>
 </g>
</svg>
