<?xml version="1.0" encoding="utf-8" standalone="no"?>
<!DOCTYPE svg PUBLIC "-//W3C//DTD SVG 1.1//EN"
  "http://www.w3.org/Graphics/SVG/1.1/DTD/svg11.dtd">
<svg xmlns:xlink="http://www.w3.org/1999/xlink" width="280.512pt" height="280.512pt" viewBox="0 0 280.512 280.512" xmlns="http://www.w3.org/2000/svg" version="1.1">
 <metadata>
  <rdf:RDF xmlns:dc="http://purl.org/dc/elements/1.1/" xmlns:cc="http://creativecommons.org/ns#" xmlns:rdf="http://www.w3.org/1999/02/22-rdf-syntax-ns#">
   <cc:Work>
    <dc:type rdf:resource="http://purl.org/dc/dcmitype/StillImage"/>
    <dc:date>2024-07-04T09:45:47.215851</dc:date>
    <dc:format>image/svg+xml</dc:format>
    <dc:creator>
     <cc:Agent>
      <dc:title>Matplotlib v3.9.1, https://matplotlib.org/</dc:title>
     </cc:Agent>
    </dc:creator>
   </cc:Work>
  </rdf:RDF>
 </metadata>
 <defs>
  <style type="text/css">*{stroke-linejoin: round; stroke-linecap: butt}</style>
 </defs>
 <g id="figure_1">
  <g id="patch_1">
   <path d="M 0 280.512 
L 280.512 280.512 
L 280.512 0 
L 0 0 
L 0 280.512 
z
" style="fill: none"/>
  </g>
  <g id="axes_1">
   <g id="patch_2">
    <path d="M 246.7008 145.57824 
C 246.7008 131.600037 243.947399 117.757754 238.598172 104.843579 
C 233.248945 91.929403 225.407922 80.194482 215.52384 70.3104 
C 205.639758 60.426318 193.904837 52.585295 180.990661 47.236068 
C 168.076486 41.886841 154.234203 39.13344 140.256 39.13344 
C 126.277797 39.13344 112.435514 41.886841 99.521339 47.236068 
C 86.607163 52.585295 74.872242 60.426318 64.98816 70.3104 
C 55.104078 80.194482 47.263055 91.929403 41.913828 104.843579 
C 36.564601 117.757754 33.8112 131.600037 33.8112 145.57824 
C 33.8112 159.556443 36.564601 173.398726 41.913828 186.312901 
C 47.263055 199.227077 55.104078 210.961998 64.98816 220.84608 
C 74.872242 230.730162 86.607163 238.571185 99.521339 243.920412 
C 112.435514 249.269639 126.277797 252.02304 140.256 252.02304 
C 154.234203 252.02304 168.076486 249.269639 180.990661 243.920412 
C 193.904837 238.571185 205.639758 230.730162 215.52384 220.84608 
C 225.407922 210.961998 233.248945 199.227077 238.598172 186.312901 
C 243.947399 173.398726 246.7008 159.556443 246.7008 145.57824 
M 140.256 145.57824 
z
" style="fill: #ffa500"/>
   </g>
   <g id="matplotlib.axis_1"/>
   <g id="matplotlib.axis_2"/>
   <g id="text_1">
    <!-- uncovered -->
    <g transform="translate(140.256001 265.49252) scale(0.1 -0.1)">
     <defs>
      <path id="Lato-Regular-75" d="M 989 3242 
L 989 1174 
Q 989 806 1157 604 
Q 1325 403 1670 403 
Q 1920 403 2141 521 
Q 2362 640 2547 851 
L 2547 3242 
L 3117 3242 
L 3117 0 
L 2778 0 
Q 2656 0 2624 118 
L 2579 467 
Q 2368 234 2105 91 
Q 1843 -51 1504 -51 
Q 1238 -51 1035 37 
Q 832 125 694 285 
Q 557 445 488 672 
Q 419 899 419 1174 
L 419 3242 
L 989 3242 
z
" transform="scale(0.015625)"/>
      <path id="Lato-Regular-6e" d="M 451 0 
L 451 3242 
L 794 3242 
Q 915 3242 944 3123 
L 989 2771 
Q 1200 3005 1462 3149 
Q 1725 3293 2067 3293 
Q 2333 3293 2536 3205 
Q 2739 3117 2875 2955 
Q 3011 2794 3081 2566 
Q 3152 2339 3152 2064 
L 3152 0 
L 2579 0 
L 2579 2064 
Q 2579 2432 2411 2635 
Q 2243 2838 1901 2838 
Q 1645 2838 1425 2716 
Q 1206 2595 1024 2387 
L 1024 0 
L 451 0 
z
" transform="scale(0.015625)"/>
      <path id="Lato-Regular-63" d="M 2707 2666 
Q 2682 2630 2656 2611 
Q 2630 2592 2586 2592 
Q 2538 2592 2480 2632 
Q 2422 2672 2337 2720 
Q 2253 2768 2129 2808 
Q 2006 2848 1827 2848 
Q 1587 2848 1404 2763 
Q 1222 2678 1099 2518 
Q 976 2358 913 2131 
Q 851 1904 851 1622 
Q 851 1328 918 1099 
Q 986 870 1109 715 
Q 1232 560 1406 478 
Q 1581 397 1798 397 
Q 2006 397 2140 446 
Q 2275 496 2363 557 
Q 2451 618 2510 667 
Q 2570 717 2627 717 
Q 2698 717 2736 662 
L 2896 454 
Q 2790 323 2656 230 
Q 2522 138 2366 75 
Q 2211 13 2041 -16 
Q 1872 -45 1696 -45 
Q 1392 -45 1131 67 
Q 870 179 678 392 
Q 486 605 377 915 
Q 269 1226 269 1622 
Q 269 1984 369 2291 
Q 470 2598 664 2820 
Q 858 3043 1141 3168 
Q 1424 3293 1792 3293 
Q 2134 3293 2395 3182 
Q 2656 3072 2858 2870 
L 2707 2666 
z
" transform="scale(0.015625)"/>
      <path id="Lato-Regular-6f" d="M 1818 3293 
Q 2173 3293 2457 3174 
Q 2742 3056 2944 2838 
Q 3146 2621 3253 2312 
Q 3360 2003 3360 1622 
Q 3360 1238 3253 931 
Q 3146 624 2944 406 
Q 2742 189 2457 72 
Q 2173 -45 1818 -45 
Q 1459 -45 1172 72 
Q 886 189 684 406 
Q 483 624 376 931 
Q 269 1238 269 1622 
Q 269 2003 376 2312 
Q 483 2621 684 2838 
Q 886 3056 1172 3174 
Q 1459 3293 1818 3293 
z
M 1818 400 
Q 2298 400 2534 721 
Q 2771 1043 2771 1619 
Q 2771 2198 2534 2521 
Q 2298 2845 1818 2845 
Q 1574 2845 1393 2761 
Q 1213 2678 1093 2521 
Q 973 2365 913 2136 
Q 854 1907 854 1619 
Q 854 1043 1092 721 
Q 1331 400 1818 400 
z
" transform="scale(0.015625)"/>
      <path id="Lato-Regular-76" d="M 74 3242 
L 538 3242 
Q 608 3242 653 3206 
Q 698 3171 714 3123 
L 1536 1037 
Q 1574 918 1603 806 
Q 1632 694 1658 582 
Q 1683 694 1712 806 
Q 1741 918 1782 1037 
L 2614 3123 
Q 2634 3174 2678 3208 
Q 2723 3242 2784 3242 
L 3229 3242 
L 1907 0 
L 1395 0 
L 74 3242 
z
" transform="scale(0.015625)"/>
      <path id="Lato-Regular-65" d="M 1779 3293 
Q 2070 3293 2318 3195 
Q 2566 3098 2747 2914 
Q 2928 2730 3030 2459 
Q 3133 2189 3133 1843 
Q 3133 1709 3104 1664 
Q 3075 1619 2995 1619 
L 829 1619 
Q 835 1312 912 1085 
Q 989 858 1123 706 
Q 1258 554 1443 478 
Q 1629 403 1859 403 
Q 2074 403 2229 452 
Q 2384 502 2496 560 
Q 2608 618 2683 667 
Q 2758 717 2813 717 
Q 2883 717 2922 662 
L 3082 454 
Q 2976 326 2829 232 
Q 2682 138 2514 77 
Q 2346 16 2166 -14 
Q 1987 -45 1811 -45 
Q 1475 -45 1192 68 
Q 909 182 702 401 
Q 496 621 381 944 
Q 266 1267 266 1686 
Q 266 2026 370 2320 
Q 474 2614 669 2830 
Q 864 3046 1145 3169 
Q 1427 3293 1779 3293 
z
M 1792 2874 
Q 1379 2874 1142 2635 
Q 906 2397 848 1974 
L 2621 1974 
Q 2621 2173 2565 2337 
Q 2509 2502 2401 2622 
Q 2294 2742 2140 2808 
Q 1987 2874 1792 2874 
z
" transform="scale(0.015625)"/>
      <path id="Lato-Regular-72" d="M 451 0 
L 451 3242 
L 778 3242 
Q 870 3242 905 3206 
Q 941 3171 954 3085 
L 989 2592 
Q 1142 2925 1368 3112 
Q 1594 3299 1917 3299 
Q 2019 3299 2113 3276 
Q 2208 3254 2282 3206 
L 2240 2781 
Q 2221 2701 2144 2701 
Q 2099 2701 2012 2720 
Q 1926 2739 1818 2739 
Q 1664 2739 1542 2692 
Q 1421 2646 1326 2558 
Q 1232 2470 1158 2342 
Q 1085 2214 1024 2048 
L 1024 0 
L 451 0 
z
" transform="scale(0.015625)"/>
      <path id="Lato-Regular-64" d="M 2794 0 
Q 2672 0 2640 118 
L 2589 512 
Q 2381 259 2113 107 
Q 1846 -45 1501 -45 
Q 1222 -45 995 62 
Q 768 170 608 378 
Q 448 586 361 896 
Q 275 1206 275 1610 
Q 275 1968 371 2277 
Q 467 2586 646 2813 
Q 826 3040 1086 3169 
Q 1347 3299 1674 3299 
Q 1971 3299 2184 3198 
Q 2397 3098 2563 2915 
L 2563 4714 
L 3133 4714 
L 3133 0 
L 2794 0 
z
M 1686 416 
Q 1968 416 2177 544 
Q 2387 672 2563 906 
L 2563 2470 
Q 2403 2682 2217 2768 
Q 2032 2854 1802 2854 
Q 1350 2854 1107 2531 
Q 864 2208 864 1610 
Q 864 1293 918 1067 
Q 973 842 1078 696 
Q 1184 550 1337 483 
Q 1491 416 1686 416 
z
" transform="scale(0.015625)"/>
     </defs>
     <use xlink:href="#Lato-Regular-75"/>
     <use xlink:href="#Lato-Regular-6e" x="55.75"/>
     <use xlink:href="#Lato-Regular-63" x="111.550003"/>
     <use xlink:href="#Lato-Regular-6f" x="158.425003"/>
     <use xlink:href="#Lato-Regular-76" x="213.750015"/>
     <use xlink:href="#Lato-Regular-65" x="263.975021"/>
     <use xlink:href="#Lato-Regular-72" x="316.775024"/>
     <use xlink:href="#Lato-Regular-65" x="351.175034"/>
     <use xlink:href="#Lato-Regular-64" x="403.975037"/>
    </g>
   </g>
   <g id="text_2">
    <!-- 100% -->
    <g transform="translate(127.548188 206.909495) scale(0.1 -0.1)">
     <defs>
      <path id="Lato-Regular-31" d="M 800 435 
L 1782 435 
L 1782 3562 
Q 1782 3696 1792 3846 
L 976 3146 
Q 934 3110 892 3102 
Q 851 3094 816 3100 
Q 781 3107 750 3126 
Q 720 3146 704 3168 
L 525 3414 
L 1891 4595 
L 2355 4595 
L 2355 435 
L 3258 435 
L 3258 0 
L 800 0 
L 800 435 
z
" transform="scale(0.015625)"/>
      <path id="Lato-Regular-30" d="M 3520 2291 
Q 3520 1690 3390 1250 
Q 3261 810 3037 522 
Q 2813 234 2507 93 
Q 2202 -48 1853 -48 
Q 1501 -48 1198 93 
Q 896 234 672 522 
Q 448 810 320 1250 
Q 192 1690 192 2291 
Q 192 2893 320 3334 
Q 448 3776 672 4065 
Q 896 4355 1198 4496 
Q 1501 4637 1853 4637 
Q 2202 4637 2507 4496 
Q 2813 4355 3037 4065 
Q 3261 3776 3390 3334 
Q 3520 2893 3520 2291 
z
M 2928 2291 
Q 2928 2816 2840 3173 
Q 2752 3530 2603 3747 
Q 2454 3965 2259 4059 
Q 2064 4154 1853 4154 
Q 1642 4154 1446 4059 
Q 1251 3965 1104 3747 
Q 957 3530 869 3173 
Q 781 2816 781 2291 
Q 781 1766 869 1411 
Q 957 1056 1104 838 
Q 1251 621 1446 526 
Q 1642 432 1853 432 
Q 2064 432 2259 526 
Q 2454 621 2603 838 
Q 2752 1056 2840 1411 
Q 2928 1766 2928 2291 
z
" transform="scale(0.015625)"/>
      <path id="Lato-Regular-25" d="M 2310 3478 
Q 2310 3210 2227 2997 
Q 2144 2784 2005 2638 
Q 1866 2493 1682 2416 
Q 1498 2339 1293 2339 
Q 1078 2339 892 2416 
Q 707 2493 571 2638 
Q 435 2784 358 2997 
Q 282 3210 282 3478 
Q 282 3754 358 3968 
Q 435 4182 571 4329 
Q 707 4477 892 4553 
Q 1078 4630 1293 4630 
Q 1510 4630 1696 4553 
Q 1882 4477 2019 4329 
Q 2157 4182 2233 3968 
Q 2310 3754 2310 3478 
z
M 1869 3478 
Q 1869 3690 1824 3837 
Q 1779 3984 1700 4078 
Q 1622 4173 1516 4214 
Q 1411 4256 1293 4256 
Q 1174 4256 1072 4214 
Q 970 4173 893 4078 
Q 816 3984 771 3837 
Q 726 3690 726 3478 
Q 726 3270 771 3124 
Q 816 2979 893 2888 
Q 970 2797 1072 2757 
Q 1174 2717 1293 2717 
Q 1411 2717 1516 2757 
Q 1622 2797 1700 2888 
Q 1779 2979 1824 3124 
Q 1869 3270 1869 3478 
z
M 3933 4490 
Q 3965 4528 4008 4557 
Q 4051 4586 4125 4586 
L 4538 4586 
L 1184 93 
Q 1155 51 1110 25 
Q 1066 0 1002 0 
L 582 0 
L 3933 4490 
z
M 4848 1082 
Q 4848 813 4765 601 
Q 4682 390 4542 244 
Q 4403 99 4219 22 
Q 4035 -54 3830 -54 
Q 3613 -54 3429 22 
Q 3245 99 3109 244 
Q 2973 390 2896 601 
Q 2819 813 2819 1082 
Q 2819 1357 2896 1573 
Q 2973 1789 3109 1936 
Q 3245 2083 3429 2160 
Q 3613 2237 3830 2237 
Q 4045 2237 4232 2160 
Q 4419 2083 4555 1936 
Q 4691 1789 4769 1573 
Q 4848 1357 4848 1082 
z
M 4406 1082 
Q 4406 1293 4361 1441 
Q 4317 1590 4238 1683 
Q 4160 1776 4054 1817 
Q 3949 1859 3830 1859 
Q 3712 1859 3608 1817 
Q 3504 1776 3427 1683 
Q 3350 1590 3307 1441 
Q 3264 1293 3264 1082 
Q 3264 874 3307 730 
Q 3350 586 3427 494 
Q 3504 403 3608 363 
Q 3712 323 3830 323 
Q 3949 323 4054 363 
Q 4160 403 4238 494 
Q 4317 586 4361 730 
Q 4406 874 4406 1082 
z
" transform="scale(0.015625)"/>
     </defs>
     <use xlink:href="#Lato-Regular-31"/>
     <use xlink:href="#Lato-Regular-30" x="58"/>
     <use xlink:href="#Lato-Regular-30" x="116"/>
     <use xlink:href="#Lato-Regular-25" x="174"/>
    </g>
    <!-- (12) -->
    <g transform="translate(131.785688 217.630745) scale(0.1 -0.1)">
     <defs>
      <path id="Lato-Regular-28" d="M 784 2013 
Q 784 1328 958 681 
Q 1133 35 1469 -547 
Q 1520 -646 1494 -699 
Q 1469 -752 1421 -784 
L 1168 -938 
Q 928 -570 760 -208 
Q 592 154 488 518 
Q 384 883 336 1252 
Q 288 1622 288 2013 
Q 288 2400 336 2771 
Q 384 3142 488 3505 
Q 592 3869 760 4230 
Q 928 4592 1168 4963 
L 1421 4806 
Q 1469 4774 1494 4721 
Q 1520 4669 1469 4573 
Q 1133 3990 958 3344 
Q 784 2698 784 2013 
z
" transform="scale(0.015625)"/>
      <path id="Lato-Regular-32" d="M 1891 4637 
Q 2182 4637 2435 4550 
Q 2688 4464 2873 4299 
Q 3059 4134 3164 3897 
Q 3270 3661 3270 3360 
Q 3270 3104 3193 2885 
Q 3117 2666 2985 2467 
Q 2854 2269 2683 2080 
Q 2512 1891 2320 1699 
L 1110 464 
Q 1238 499 1369 520 
Q 1501 541 1622 541 
L 3158 541 
Q 3251 541 3305 486 
Q 3360 432 3360 346 
L 3360 0 
L 301 0 
L 301 195 
Q 301 256 326 320 
Q 352 384 406 438 
L 1875 1914 
Q 2058 2099 2208 2270 
Q 2358 2442 2464 2614 
Q 2570 2787 2627 2964 
Q 2685 3142 2685 3344 
Q 2685 3546 2621 3698 
Q 2557 3850 2446 3949 
Q 2336 4048 2185 4097 
Q 2035 4147 1862 4147 
Q 1686 4147 1539 4096 
Q 1392 4045 1278 3953 
Q 1165 3862 1088 3737 
Q 1011 3613 979 3462 
Q 941 3350 875 3313 
Q 810 3277 691 3293 
L 394 3344 
Q 438 3658 568 3899 
Q 698 4141 894 4304 
Q 1091 4467 1344 4552 
Q 1597 4637 1891 4637 
z
" transform="scale(0.015625)"/>
      <path id="Lato-Regular-29" d="M 925 2013 
Q 925 2698 750 3344 
Q 576 3990 240 4573 
Q 214 4621 208 4657 
Q 202 4694 211 4721 
Q 221 4749 241 4769 
Q 262 4790 288 4806 
L 541 4963 
Q 781 4592 949 4230 
Q 1117 3869 1221 3505 
Q 1325 3142 1373 2771 
Q 1421 2400 1421 2013 
Q 1421 1622 1373 1252 
Q 1325 883 1221 518 
Q 1117 154 949 -208 
Q 781 -570 541 -938 
L 288 -784 
Q 262 -768 241 -747 
Q 221 -726 211 -699 
Q 202 -672 208 -633 
Q 214 -595 240 -547 
Q 576 35 750 681 
Q 925 1328 925 2013 
z
" transform="scale(0.015625)"/>
     </defs>
     <use xlink:href="#Lato-Regular-28"/>
     <use xlink:href="#Lato-Regular-31" x="26.699997"/>
     <use xlink:href="#Lato-Regular-32" x="84.699997"/>
     <use xlink:href="#Lato-Regular-29" x="142.699997"/>
    </g>
   </g>
  </g>
 </g>
</svg>
